<svg width="233" height="70" viewBox="0 0 233 70" fill="none" xmlns="http://www.w3.org/2000/svg">
<g clip-path="url(#clip0_4372_4291)">
<path d="M196.589 45.5747C191.696 45.5747 187.401 44.6204 183.702 42.7117C180.041 40.803 177.185 38.1542 175.129 34.7653C173.075 31.3374 172.049 27.3448 172.049 22.7874C172.049 18.2299 173.075 14.2567 175.129 10.8678C177.185 7.43997 180.041 4.77171 183.702 2.86303C187.401 0.954344 191.696 0 196.589 0C201.483 0 205.759 0.954344 209.419 2.86303C213.118 4.77171 215.994 7.43997 218.048 10.8678C220.102 14.2567 221.13 18.2299 221.13 22.7874C221.13 27.3448 220.102 31.3374 218.048 34.7653C215.994 38.1542 213.118 40.803 209.419 42.7117C205.759 44.6204 201.483 45.5747 196.589 45.5747ZM196.589 36.752C199.653 36.752 202.285 36.1871 204.489 35.0575C206.73 33.9279 208.449 32.3113 209.643 30.2078C210.877 28.1044 211.493 25.631 211.493 22.7874C211.493 19.9438 210.877 17.4704 209.643 15.3669C208.449 13.2634 206.73 11.6469 204.489 10.5172C202.285 9.38761 199.653 8.8228 196.589 8.8228C193.563 8.8228 190.93 9.38761 188.689 10.5172C186.447 11.6469 184.71 13.2634 183.478 15.3669C182.284 17.4704 181.686 19.9438 181.686 22.7874C181.686 25.631 182.284 28.1044 183.478 30.2078C184.71 32.3113 186.447 33.9279 188.689 35.0575C190.93 36.1871 193.563 36.752 196.589 36.752Z" fill="black"/>
<path d="M165.497 0.876953V44.6988H156.029V5.14228L160.342 9.64133H127.79L132.104 5.14228V44.6988H122.579V0.876953H165.497Z" fill="black"/>
<path d="M68.5742 44.6988V0.876953H77.875V39.6738L75.0175 39.0896L101.575 0.876953H113.958V44.6988H104.657V5.376L107.514 5.96028L80.6205 44.6988H68.5742Z" fill="black"/>
<path d="M59.9988 0.876953V44.6988H50.9221V4.20742L53.3314 4.3827L35.402 44.6988H25.5969L7.66748 4.49956L10.0207 4.26584V44.6988H1V0.876953H15.6237L32.5446 39.9076H28.4544L45.3752 0.876953H59.9988Z" fill="black"/>
</g>
<rect x="122.699" y="41.7715" width="106.374" height="27.9458" rx="13.9729" transform="rotate(-5.0246 122.699 41.7715)" fill="#6F01C6"/>
<path d="M216.088 49.0332L217.575 48.9025L217.332 46.1397L215.845 46.2704C215.363 46.3128 214.99 46.4763 214.728 46.7608C214.47 47.0396 214.361 47.3996 214.399 47.8406C214.434 48.2349 214.605 48.544 214.912 48.768C215.224 48.9863 215.616 49.0747 216.088 49.0332ZM217.935 53.0038L217.688 50.1944L216.443 50.3038L214.706 53.2878L212.807 53.4547L214.768 50.1609C214.182 50.0399 213.708 49.7914 213.346 49.4155C212.983 49.0343 212.776 48.561 212.727 47.9955C212.652 47.1446 212.878 46.4476 213.406 45.9045C213.938 45.3558 214.684 45.0393 215.644 44.9549L218.865 44.6716L219.585 52.8588L217.935 53.0038Z" fill="white"/>
<path d="M206.037 54.0512L204.379 54.1969L203.659 46.0098L205.317 45.864L205.821 51.5997L205.883 51.5942L209.161 45.526L210.819 45.3803L211.539 53.5674L209.881 53.7132L209.376 47.9619L209.313 47.9674L206.037 54.0512Z" fill="white"/>
<path d="M202.368 47.4633L198.616 47.7931L199.219 54.6494L197.546 54.7965L196.826 46.6094L202.251 46.1325L202.368 47.4633Z" fill="white"/>
<path d="M194.954 54.0381C194.315 54.8576 193.406 55.3191 192.229 55.4227C191.051 55.5262 190.076 55.2303 189.304 54.5348C188.531 53.8342 188.087 52.8275 187.972 51.5149C187.857 50.2074 188.119 49.1439 188.758 48.3244C189.396 47.4997 190.304 47.0355 191.482 46.932C192.66 46.8284 193.635 47.127 194.408 47.8276C195.18 48.5231 195.624 49.5246 195.738 50.832C195.854 52.1447 195.592 53.2133 194.954 54.0381ZM192.107 54.0374C192.776 53.9786 193.283 53.6804 193.628 53.1429C193.973 52.6054 194.106 51.8853 194.026 50.9825C193.947 50.085 193.689 49.4019 193.25 48.9333C192.817 48.4642 192.268 48.2589 191.604 48.3173C190.94 48.3757 190.433 48.6738 190.083 49.2118C189.738 49.7492 189.605 50.4668 189.684 51.3644C189.763 52.2671 190.019 52.953 190.453 53.4221C190.891 53.8907 191.443 54.0958 192.107 54.0374Z" fill="white"/>
<path d="M182.136 52.3958C182.148 52.8863 182.136 53.3212 182.102 53.7007C182.067 54.0802 181.999 54.4391 181.898 54.7773C181.797 55.1104 181.662 55.3915 181.494 55.6207C181.325 55.8446 181.106 56.0286 180.837 56.1726C180.572 56.3109 180.258 56.396 179.894 56.4279C179.666 56.448 179.474 56.4361 179.319 56.3923L179.189 54.9136C179.332 54.9428 179.482 54.9505 179.638 54.9369C180.011 54.904 180.269 54.6775 180.409 54.2573C180.55 53.8371 180.613 53.2382 180.596 52.4606L180.491 48.0466L186.164 47.5478L186.884 55.735L185.211 55.8821L184.608 49.0257L182.086 49.2474L182.136 52.3958Z" fill="white"/>
<path d="M177.692 55.5556C177.053 56.3752 176.145 56.8367 174.967 56.9403C173.789 57.0438 172.814 56.7479 172.042 56.0524C171.269 55.3518 170.825 54.3451 170.71 53.0325C170.595 51.725 170.857 50.6615 171.496 49.842C172.134 49.0173 173.043 48.5531 174.22 48.4496C175.398 48.346 176.373 48.6446 177.146 49.3452C177.918 50.0407 178.362 51.0421 178.477 52.3496C178.592 53.6622 178.331 54.7309 177.692 55.5556ZM174.845 55.555C175.514 55.4961 176.021 55.198 176.366 54.6605C176.711 54.123 176.844 53.4029 176.765 52.5001C176.686 51.6025 176.427 50.9195 175.988 50.4509C175.555 49.9818 175.006 49.7765 174.342 49.8349C173.678 49.8932 173.171 50.1914 172.821 50.7293C172.476 51.2668 172.343 51.9844 172.422 52.8819C172.501 53.7847 172.758 54.4706 173.191 54.9397C173.63 55.4083 174.181 55.6134 174.845 55.555Z" fill="white"/>
<path d="M166.455 54.495L166.416 54.4984L164.867 57.6696L163.046 57.8297L165.387 53.5065L162.365 49.6392L164.248 49.4736L166.299 52.2813L166.33 52.2786L167.836 49.1581L169.688 48.9953L167.359 53.2782L170.377 57.1852L168.525 57.348L166.455 54.495Z" fill="white"/>
<path d="M156.337 58.4203L154.68 58.5661L153.96 50.3789L155.618 50.2332L156.122 55.9688L156.184 55.9634L159.462 49.8951L161.12 49.7494L161.84 57.9366L160.182 58.0823L159.676 52.3311L159.614 52.3365L156.337 58.4203Z" fill="white"/>
<path d="M152.821 53.122L151.202 53.2643C151.052 52.8697 150.805 52.5594 150.461 52.3334C150.117 52.1075 149.696 52.0164 149.198 52.0602C148.55 52.1172 148.051 52.4225 147.702 52.976C147.358 53.5238 147.224 54.2284 147.3 55.0896C147.377 55.9717 147.633 56.6498 148.067 57.124C148.506 57.5926 149.054 57.798 149.713 57.74C150.206 57.6967 150.603 57.5441 150.904 57.2824C151.205 57.0154 151.396 56.6614 151.478 56.2203L153.096 56.078C153.05 56.9186 152.73 57.6212 152.137 58.1857C151.548 58.7447 150.776 59.0661 149.821 59.15C148.644 59.2536 147.674 58.9546 146.911 58.253C146.149 57.5515 145.711 56.547 145.596 55.2395C145.482 53.9528 145.74 52.8949 146.367 52.0659C147 51.2313 147.897 50.7629 149.059 50.6607C150.03 50.5754 150.849 50.77 151.518 51.2445C152.192 51.7133 152.626 52.3391 152.821 53.122Z" fill="white"/>
<path d="M144.306 59.4784L142.57 59.631L141.716 49.9184L136.097 50.4125L136.951 60.125L135.2 60.2789L134.213 49.0488L143.318 48.2483L144.306 59.4784Z" fill="white"/>
<defs>
<clipPath id="clip0_4372_4291">
<rect width="220" height="47" fill="white" transform="translate(1)"/>
</clipPath>
</defs>
</svg>
