<svg width="61" height="90" viewBox="0 0 61 90" fill="none" xmlns="http://www.w3.org/2000/svg">
<path fill-rule="evenodd" clip-rule="evenodd" d="M45.7841 11.7096V5.84376H38.1666V0H22.9317V5.84376H15.3142V11.7096H0.0603465V17.6636H0V19.0863H0.0603465V46.0497C0.0603465 63.8133 10.2796 80.0473 26.4473 87.965L30.6043 90L34.6958 87.9871C50.817 80.0524 61 63.8421 61 46.1125V11.7096H45.7841ZM38.1666 7.26654H44.3375V11.6875H38.1666V7.26654ZM24.3783 1.42278H36.7183V11.6875H24.3783V1.42278ZM16.7608 7.26654H22.9317V11.6875H16.7608V7.26654ZM1.50866 13.134H59.5534V17.6652H1.50866V13.134ZM34.0492 86.7152L30.6043 88.411L27.0939 86.6915C11.4176 79.0145 1.50866 63.274 1.50866 46.0497V19.088H59.5534V46.1141C59.5534 63.3063 49.6807 79.023 34.0492 86.7169V86.7152Z" fill="#2C2929"/>
<path fill-rule="evenodd" clip-rule="evenodd" d="M45.1978 48.49H40.2184V40.579H42.3271C42.4357 40.579 42.5219 40.6655 42.5219 40.7706V42.6343C42.5219 42.7514 42.4253 42.8463 42.3064 42.8463H41.4219V44.3437H42.3064C43.265 44.3437 44.0426 43.5789 44.0426 42.636V40.7723C44.0426 39.8396 43.2736 39.0833 42.3253 39.0833H38.6942V48.4917H29.6939V42.8378H34.6734C36.6786 42.8378 38.3045 41.2387 38.3045 39.2665V32.8733H31.8043C29.7991 32.8733 28.1732 34.4724 28.1732 36.4446V41.3421H19.6506V39.2682C19.6506 39.1613 19.7385 39.0765 19.8454 39.0765H21.7403C21.8592 39.0765 21.9558 39.1715 21.9558 39.2885V40.1585H23.4782V39.2885C23.4782 38.3456 22.7006 37.5808 21.742 37.5808H19.8471C18.8988 37.5808 18.1298 38.3372 18.1298 39.2699V42.8412H28.1749V51.6934H22.4265V46.7959C22.4265 44.8236 20.8006 43.2245 18.7954 43.2245H12.2952V49.6177C12.2952 51.5899 13.9211 53.1891 15.9263 53.1891H20.9058V61.1H18.7971C18.6885 61.1 18.6022 61.0135 18.6022 60.9084V59.0447C18.6022 58.9277 18.6988 58.8327 18.8178 58.8327H19.7023V57.3353H18.8178C17.8591 57.3353 17.0815 58.1001 17.0815 59.043V60.9067C17.0815 61.8394 17.8505 62.5957 18.7988 62.5957H22.4299V53.1874H31.4302V58.8412H26.4507C24.4455 58.8412 22.8196 60.4403 22.8196 62.4126V68.8058H29.3198C31.325 68.8058 32.9509 67.2066 32.9509 65.2344V60.3369H41.0908V62.4109C41.0908 62.5177 41.0029 62.6025 40.896 62.6025H39.0011C38.8821 62.6025 38.7856 62.5075 38.7856 62.3905V61.5206H37.2631V62.3905C37.2631 63.3334 38.0407 64.0982 38.9994 64.0982H40.8943C41.8426 64.0982 42.6115 63.3419 42.6115 62.4092V58.8378H32.9492V49.9857H38.6976V54.8832C38.6976 56.8554 40.3236 58.4546 42.3288 58.4546H48.829V52.0614C48.829 50.0891 47.2031 48.49 45.1978 48.49ZM13.8159 44.7185H18.7954C19.9592 44.7185 20.904 45.6478 20.904 46.7925V51.69H15.9246C14.759 51.69 13.8159 50.7607 13.8159 49.616V44.7185ZM31.8043 34.369H36.7838V39.2665C36.7838 40.4111 35.8389 41.3404 34.6751 41.3404H29.6957V36.4429C29.6957 35.2966 30.6405 34.369 31.8043 34.369ZM29.6957 51.69V49.9874H31.4268V51.69H29.6957ZM29.3181 67.3084H24.3386V62.4109C24.3386 61.2645 25.2835 60.3369 26.4473 60.3369H31.4268V65.2344C31.4268 66.3791 30.4819 67.3084 29.3181 67.3084ZM40.2184 49.9874H45.1978C46.3617 49.9874 47.3065 50.9167 47.3065 52.0614V56.9589H42.3271C41.1615 56.9589 40.2184 56.0295 40.2184 54.8849V49.9874Z" fill="#2C2929"/>
</svg>
