<svg width="457" height="463" viewBox="0 0 457 463" fill="none" xmlns="http://www.w3.org/2000/svg">
<path d="M400 95.5009C400 79.7608 412.76 67.0009 428.5 67.0009H457V95.5009C457 111.241 444.24 124.001 428.5 124.001C412.76 124.001 400 111.241 400 95.5009Z" fill="#2663F0"/>
<circle cx="105" cy="446" r="17" fill="#2663F0"/>
<path d="M23.961 14.3649C27.7454 13.6571 31.1889 12.8891 34.7239 12.9881C35.9547 13.0224 36.6203 12.3065 37.3406 11.5465C39.6047 9.1517 41.5161 6.48712 43.2653 3.70814C43.8678 2.75327 44.3113 1.69829 44.8341 0.692344C44.9819 0.40924 45.0367 -0.0934075 45.5296 0.171299C45.957 0.40109 45.8236 0.798873 45.6678 1.18229C44.8288 3.24743 43.6124 5.0954 42.3968 6.94746C41.1968 8.77255 39.8038 10.4407 38.3388 12.0539C38.1694 12.2389 37.8139 12.4154 37.9855 12.7292C38.1861 13.0966 38.5825 13.136 38.9871 13.1544C41.5559 13.2724 43.9346 14.0085 46.0383 15.5033C48.2689 17.0881 49.8707 19.1558 50.2093 21.9312C50.7478 26.3403 49.3187 30.1589 46.4306 33.4791C46.232 33.7068 46.1687 34.0528 45.9667 34.275C45.3047 35.0072 45.8877 35.2136 46.4293 35.2512C47.9359 35.3515 49.2926 35.911 50.6638 36.4587C52.4089 37.1581 53.7822 39.6401 53.7791 41.4919C53.7751 44.8438 51.6348 46.875 49.5026 48.9431C47.7821 50.6124 45.8269 51.9539 43.6962 53.0618C43.1868 53.3277 42.8436 53.1695 42.6117 52.9032C42.2296 52.4599 42.761 52.1677 43.0259 52.0175C44.4335 51.2074 45.8328 50.3885 47.1437 49.4304C47.9779 48.819 49.1696 48.4698 49.6787 47.724C50.5734 46.4115 51.7672 45.2905 52.3213 43.7142C53.6882 39.8171 51.5967 37.6554 48.4559 36.6773C47.3705 36.3389 46.2099 36.2335 45.0805 36.0462C44.1891 35.8989 43.6749 36.5923 43.104 37.056C40.5816 39.1132 37.8781 40.8524 34.927 42.2537C30.9143 44.1578 26.6989 45.4208 22.4153 46.4995C21.5304 46.7235 20.6573 46.6107 19.8755 46.2208C18.3431 45.4556 18.1772 43.7222 19.2466 42.1122C20.1774 40.7104 21.5841 40.0034 22.9753 39.304C27.0686 37.2494 31.4223 35.9433 35.9554 35.3477C38.2357 35.049 40.5292 34.5761 42.8521 34.9109C43.9027 35.0618 44.4637 34.3667 45.0279 33.7352C47.4 31.081 48.871 27.971 49.2686 24.4407C49.4774 22.5888 49.0591 20.75 48.0654 19.1296C45.9116 15.6189 42.4555 14.5514 38.6301 14.2226C38.353 14.1998 38.0719 14.1779 37.8038 14.1081C36.9331 13.8791 36.3295 14.0672 35.6221 14.7687C33.6334 16.7389 31.4487 18.4992 29.164 20.1358C27.3367 21.445 25.4399 22.6622 23.4906 23.7475C21.5357 24.8361 19.5095 25.8246 17.4065 26.6779C15.1186 27.606 12.7983 28.4062 10.4559 29.1449C8.83507 29.6567 7.10741 29.7206 5.54949 28.976C3.17283 27.8389 3.29116 26.0046 4.53322 23.6775C5.27382 22.2874 6.58582 21.3441 8.01097 20.5259C9.85077 19.469 11.7646 18.5543 13.6921 17.731C16.2051 16.6571 18.7484 15.5744 21.4663 15.0341C22.4224 14.8416 23.3504 14.5309 23.961 14.3649ZM25.8295 15.1486C23.3536 15.5908 21.1185 16.1345 18.9572 16.8977C17.7799 17.3123 16.5405 17.5905 15.4338 18.161C13.3066 19.2553 11.0929 20.1607 8.96788 21.2652C7.56817 21.9942 6.35329 22.8627 5.52493 24.1456C4.5019 25.7327 4.71394 27.8523 6.74068 28.2241C7.45278 28.3551 8.10528 28.3705 8.77854 28.2658C12.775 27.6357 16.4609 26.039 20.0419 24.296C22.169 23.2596 24.2617 22.0764 26.2549 20.7223C28.8857 18.9349 31.3924 17.0118 33.8391 14.9904C34.093 14.7805 34.217 14.584 34.088 14.2888C33.9657 14.0049 33.696 14.0448 33.4565 14.0759C30.8358 14.4149 28.1607 14.3395 25.8295 15.1486ZM25.275 44.5739C27.7638 44.1224 30.0896 43.1517 32.4039 42.2071C34.3149 41.426 36.1362 40.4116 37.9595 39.4162C39.1895 38.7436 40.1628 37.731 41.4049 37.1137C41.7181 36.9593 41.9636 36.8283 41.8927 36.4368C41.808 35.9626 41.4161 36.1192 41.141 36.1153C39.2558 36.0959 37.3938 36.3285 35.5381 36.6584C30.4802 37.5575 25.5585 38.8233 21.208 41.727C20.726 42.0492 20.3422 42.429 20.0393 42.8939C19.6566 43.4835 19.5554 44.1356 19.9059 44.7765C20.2534 45.4137 20.8491 45.5317 21.52 45.4745C22.819 45.3611 24.031 44.8896 25.275 44.5739Z" fill="#2663F0"/>
</svg>
