<svg width="331" height="63" viewBox="0 0 331 63" fill="none" xmlns="http://www.w3.org/2000/svg">
<path d="M170.228 43.0443C166.069 43.0443 162.418 42.1839 159.275 40.4631C156.164 38.7423 153.736 36.3543 151.99 33.2989C150.244 30.2085 149.371 26.6089 149.371 22.5C149.371 18.3911 150.244 14.8091 151.99 11.7537C153.736 8.66332 156.164 6.2577 159.275 4.5369C162.418 2.81609 166.069 1.95569 170.228 1.95569C174.386 1.95569 178.021 2.81609 181.132 4.5369C184.275 6.2577 186.719 8.66332 188.465 11.7537C190.211 14.8091 191.084 18.3911 191.084 22.5C191.084 26.6089 190.211 30.2085 188.465 33.2989C186.719 36.3543 184.275 38.7423 181.132 40.4631C178.021 42.1839 174.386 43.0443 170.228 43.0443ZM170.228 35.09C172.831 35.09 175.069 34.5808 176.942 33.5623C178.847 32.5439 180.307 31.0865 181.323 29.1901C182.37 27.2937 182.894 25.0637 182.894 22.5C182.894 19.9364 182.37 17.7063 181.323 15.8099C180.307 13.9135 178.847 12.4561 176.942 11.4377C175.069 10.4192 172.831 9.91003 170.228 9.91003C167.656 9.91003 165.418 10.4192 163.514 11.4377C161.609 12.4561 160.133 13.9135 159.085 15.8099C158.069 17.7063 157.561 19.9364 157.561 22.5C157.561 25.0637 158.069 27.2937 159.085 29.1901C160.133 31.0865 161.609 32.5439 163.514 33.5623C165.418 34.5808 167.656 35.09 170.228 35.09Z" fill="#1A1A1A"/>
<path d="M143.803 2.74585V42.2542H135.756V6.59133L139.422 10.6475H111.756L115.423 6.59133V42.2542H107.328V2.74585H143.803Z" fill="#1A1A1A"/>
<path d="M61.4301 42.2542V2.74585H69.3347V37.7239L66.9062 37.1971L89.4772 2.74585H100.001V42.2542H92.0962V6.80204L94.5248 7.32882L71.668 42.2542H61.4301Z" fill="#1A1A1A"/>
<path d="M54.1419 2.74585V42.2542H46.4278V5.74849L48.4754 5.90652L33.2376 42.2542H24.9044L9.66656 6.01187L11.6665 5.80116V42.2542H4V2.74585H16.4283L30.809 37.9346H27.3329L41.7136 2.74585H54.1419Z" fill="#1A1A1A"/>
<path d="M279.085 36.9193H280.137V34.9641H279.085C278.743 34.9641 278.472 35.0559 278.27 35.2395C278.071 35.4194 277.972 35.6654 277.972 35.9775C277.972 36.2565 278.073 36.4842 278.275 36.6604C278.481 36.833 278.751 36.9193 279.085 36.9193ZM280.137 39.8217V37.8335H279.256L277.851 39.8217H276.507L278.088 37.6297C277.684 37.5085 277.366 37.3048 277.135 37.0184C276.904 36.7283 276.788 36.3832 276.788 35.983C276.788 35.3808 276.99 34.9054 277.394 34.5566C277.802 34.2041 278.345 34.0278 279.024 34.0278H281.304V39.8217H280.137Z" fill="#1A1A1A"/>
<path d="M271.716 39.8217H270.542V34.0278H271.716V38.0868H271.76L274.436 34.0278H275.609V39.8217H274.436V35.7517H274.392L271.716 39.8217Z" fill="#1A1A1A"/>
<path d="M268.07 39.8217V37.2993H265.448V39.8217H264.264V34.0278H265.448V36.363H268.07V34.0278H269.254V39.8217H268.07Z" fill="#1A1A1A"/>
<path d="M260.348 38.979C260.767 38.979 261.118 38.8524 261.4 38.599C261.687 38.342 261.83 38.0263 261.83 37.6518V37.1946L260.403 37.2828C260.047 37.3085 259.772 37.3966 259.577 37.5471C259.386 37.694 259.291 37.8922 259.291 38.1419C259.291 38.3953 259.386 38.599 259.577 38.7532C259.772 38.9038 260.029 38.979 260.348 38.979ZM260.018 39.9208C259.449 39.9208 258.984 39.7593 258.625 39.4362C258.268 39.1131 258.09 38.6927 258.09 38.175C258.09 37.6683 258.278 37.2662 258.652 36.9688C259.027 36.6678 259.557 36.4989 260.244 36.4621L261.83 36.3685V35.9224C261.83 35.5993 261.727 35.3478 261.521 35.1679C261.316 34.9843 261.031 34.8925 260.668 34.8925C260.33 34.8925 260.055 34.9678 259.842 35.1183C259.632 35.2689 259.5 35.4763 259.445 35.7407H258.322C258.355 35.2046 258.586 34.7677 259.016 34.4299C259.445 34.0921 260.011 33.9232 260.712 33.9232C261.413 33.9232 261.971 34.0958 262.386 34.4409C262.805 34.786 263.014 35.2487 263.014 35.8288V39.8217H261.874V38.8689H261.846C261.681 39.1883 261.43 39.4435 261.092 39.6344C260.758 39.8254 260.4 39.9208 260.018 39.9208Z" fill="#1A1A1A"/>
<path d="M254.945 34.8925H253.728V36.4126H254.83C255.502 36.4126 255.838 36.1556 255.838 35.6415C255.838 35.4029 255.761 35.2193 255.606 35.0908C255.452 34.9586 255.232 34.8925 254.945 34.8925ZM254.907 37.2442H253.728V38.957H255.039C255.377 38.957 255.634 38.8854 255.81 38.7422C255.986 38.5953 256.074 38.3824 256.074 38.1034C256.074 37.5306 255.685 37.2442 254.907 37.2442ZM252.555 39.8217V34.0278H255.188C255.753 34.0278 256.196 34.16 256.515 34.4244C256.838 34.6851 257 35.0449 257 35.5038C257 35.8049 256.904 36.0766 256.713 36.3189C256.526 36.5576 256.293 36.7026 256.014 36.754V36.7981C256.388 36.8495 256.689 36.9982 256.917 37.2442C257.145 37.4865 257.259 37.7894 257.259 38.1529C257.259 38.6633 257.075 39.069 256.708 39.3701C256.344 39.6711 255.849 39.8217 255.221 39.8217H252.555Z" fill="#1A1A1A"/>
<path d="M250.782 39.1277C250.283 39.6638 249.616 39.9318 248.783 39.9318C247.949 39.9318 247.283 39.6638 246.784 39.1277C246.284 38.588 246.035 37.8537 246.035 36.9248C246.035 35.9995 246.284 35.2689 246.784 34.7328C247.283 34.1931 247.949 33.9232 248.783 33.9232C249.616 33.9232 250.283 34.1931 250.782 34.7328C251.281 35.2689 251.531 35.9995 251.531 36.9248C251.531 37.8537 251.281 38.588 250.782 39.1277ZM248.783 38.9515C249.257 38.9515 249.631 38.7734 249.906 38.4173C250.182 38.0611 250.319 37.5636 250.319 36.9248C250.319 36.2896 250.18 35.7939 249.901 35.4378C249.626 35.0816 249.253 34.9035 248.783 34.9035C248.313 34.9035 247.938 35.0816 247.659 35.4378C247.384 35.7939 247.246 36.2896 247.246 36.9248C247.246 37.5636 247.384 38.0611 247.659 38.4173C247.938 38.7734 248.313 38.9515 248.783 38.9515Z" fill="#1A1A1A"/>
<path d="M242.873 39.9318C242.194 39.9318 241.636 39.7758 241.199 39.4637C240.766 39.1516 240.524 38.7294 240.472 38.197H241.645C241.704 38.4467 241.84 38.6394 242.053 38.7753C242.266 38.9074 242.539 38.9735 242.873 38.9735C243.248 38.9735 243.538 38.8946 243.744 38.7367C243.953 38.5788 244.058 38.3696 244.058 38.1089C244.058 37.5471 243.665 37.2662 242.879 37.2662H242.031V36.3906H242.862C243.538 36.3906 243.876 36.1372 243.876 35.6305C243.876 35.3992 243.791 35.2156 243.622 35.0798C243.454 34.9403 243.206 34.8705 242.879 34.8705C242.559 34.8705 242.299 34.9348 242.097 35.0633C241.895 35.1918 241.774 35.3698 241.733 35.5975H240.593C240.656 35.0798 240.889 34.6722 241.293 34.3748C241.7 34.0738 242.227 33.9232 242.873 33.9232C243.564 33.9232 244.096 34.0664 244.471 34.3528C244.849 34.6355 245.038 35.0229 245.038 35.5149C245.038 35.8123 244.953 36.0748 244.784 36.3024C244.616 36.5301 244.392 36.6788 244.113 36.7485V36.7926C244.48 36.877 244.759 37.0331 244.95 37.2607C245.144 37.4884 245.242 37.7692 245.242 38.1034C245.242 38.6541 245.025 39.0965 244.592 39.4307C244.162 39.7648 243.589 39.9318 242.873 39.9318Z" fill="#1A1A1A"/>
<path d="M236.876 38.979C237.294 38.979 237.645 38.8524 237.928 38.599C238.214 38.342 238.357 38.0263 238.357 37.6518V37.1946L236.931 37.2828C236.575 37.3085 236.299 37.3966 236.105 37.5471C235.914 37.694 235.818 37.8922 235.818 38.1419C235.818 38.3953 235.914 38.599 236.105 38.7532C236.299 38.9038 236.556 38.979 236.876 38.979ZM236.545 39.9208C235.976 39.9208 235.512 39.7593 235.152 39.4362C234.796 39.1131 234.618 38.6927 234.618 38.175C234.618 37.6683 234.805 37.2662 235.179 36.9688C235.554 36.6678 236.084 36.4989 236.771 36.4621L238.357 36.3685V35.9224C238.357 35.5993 238.254 35.3478 238.049 35.1679C237.843 34.9843 237.559 34.8925 237.195 34.8925C236.857 34.8925 236.582 34.9678 236.369 35.1183C236.16 35.2689 236.028 35.4763 235.973 35.7407H234.849C234.882 35.2046 235.113 34.7677 235.543 34.4299C235.973 34.0921 236.538 33.9232 237.239 33.9232C237.94 33.9232 238.499 34.0958 238.913 34.4409C239.332 34.786 239.541 35.2487 239.541 35.8288V39.8217H238.401V38.8689H238.374C238.209 39.1883 237.957 39.4435 237.619 39.6344C237.285 39.8254 236.927 39.9208 236.545 39.9208Z" fill="#1A1A1A"/>
<path d="M231.379 33.9342C232.117 33.9342 232.709 34.2041 233.153 34.7438C233.597 35.2836 233.819 36.0105 233.819 36.9248C233.819 37.839 233.599 38.5678 233.158 39.1112C232.718 39.651 232.132 39.9208 231.401 39.9208C230.99 39.9208 230.625 39.8272 230.305 39.6399C229.99 39.4527 229.747 39.1957 229.578 38.8689H229.551V41.7383H228.361V34.0279H229.512V35.0247H229.534C229.707 34.6869 229.955 34.4207 230.278 34.2261C230.601 34.0315 230.968 33.9342 231.379 33.9342ZM231.065 38.913C231.535 38.913 231.908 38.7349 232.183 38.3787C232.459 38.0189 232.597 37.5343 232.597 36.9248C232.597 36.319 232.459 35.8361 232.183 35.4763C231.908 35.1165 231.535 34.9366 231.065 34.9366C230.61 34.9366 230.243 35.1183 229.964 35.4818C229.685 35.8453 229.545 36.3263 229.545 36.9248C229.545 37.5269 229.683 38.0097 229.958 38.3732C230.238 38.733 230.607 38.913 231.065 38.913Z" fill="#1A1A1A"/>
<path d="M224.572 39.9318C223.661 39.9318 222.968 39.6381 222.49 39.0506C222.017 38.4632 221.78 37.5985 221.78 36.4566C221.78 35.3809 221.888 34.5125 222.105 33.8516C222.325 33.1871 222.663 32.6951 223.118 32.3756C223.577 32.0562 224.177 31.8836 224.919 31.8579L225.437 31.8414C226.153 31.8084 226.658 31.7129 226.951 31.555V32.5409C226.874 32.6143 226.7 32.6804 226.428 32.7391C226.156 32.7979 225.848 32.8346 225.503 32.8493L224.996 32.8658C224.611 32.8805 224.286 32.9356 224.021 33.031C223.761 33.1228 223.544 33.2697 223.371 33.4716C223.199 33.6699 223.065 33.9104 222.969 34.1931C222.874 34.4721 222.799 34.8246 222.744 35.2505H222.788C222.971 34.9091 223.232 34.6484 223.57 34.4685C223.911 34.2849 224.31 34.1931 224.765 34.1931C225.547 34.1931 226.169 34.4464 226.632 34.9531C227.098 35.4598 227.331 36.139 227.331 36.9909C227.331 37.9014 227.085 38.6192 226.593 39.1443C226.101 39.6693 225.428 39.9318 224.572 39.9318ZM224.561 38.935C225.053 38.935 225.435 38.7679 225.707 38.4338C225.978 38.096 226.114 37.6205 226.114 37.0074C226.114 36.4236 225.978 35.9702 225.707 35.647C225.435 35.3239 225.053 35.1624 224.561 35.1624C224.065 35.1624 223.68 35.3239 223.404 35.647C223.133 35.9702 222.997 36.4236 222.997 37.0074C222.997 37.6242 223.133 38.0997 223.404 38.4338C223.68 38.7679 224.065 38.935 224.561 38.935Z" fill="#1A1A1A"/>
<path d="M220.216 39.1277C219.716 39.6638 219.05 39.9318 218.216 39.9318C217.383 39.9318 216.717 39.6638 216.217 39.1277C215.718 38.588 215.468 37.8537 215.468 36.9248C215.468 35.9995 215.718 35.2689 216.217 34.7328C216.717 34.1931 217.383 33.9232 218.216 33.9232C219.05 33.9232 219.716 34.1931 220.216 34.7328C220.715 35.2689 220.965 35.9995 220.965 36.9248C220.965 37.8537 220.715 38.588 220.216 39.1277ZM218.216 38.9515C218.69 38.9515 219.065 38.7734 219.34 38.4173C219.615 38.0611 219.753 37.5636 219.753 36.9248C219.753 36.2896 219.614 35.7939 219.334 35.4378C219.059 35.0816 218.686 34.9035 218.216 34.9035C217.747 34.9035 217.372 35.0816 217.093 35.4378C216.818 35.7939 216.68 36.2896 216.68 36.9248C216.68 37.5636 216.818 38.0611 217.093 38.4173C217.372 38.7734 217.747 38.9515 218.216 38.9515Z" fill="#1A1A1A"/>
<path d="M318.777 25.4315C318.277 25.9676 317.611 26.2356 316.778 26.2356C315.944 26.2356 315.278 25.9676 314.778 25.4315C314.279 24.8918 314.029 24.1575 314.029 23.2286C314.029 22.3033 314.279 21.5727 314.778 21.0366C315.278 20.4969 315.944 20.227 316.778 20.227C317.611 20.227 318.277 20.4969 318.777 21.0366C319.276 21.5727 319.526 22.3033 319.526 23.2286C319.526 24.1575 319.276 24.8918 318.777 25.4315ZM316.778 25.2553C317.251 25.2553 317.626 25.0772 317.901 24.7211C318.176 24.3649 318.314 23.8674 318.314 23.2286C318.314 22.5934 318.175 22.0977 317.896 21.7416C317.62 21.3854 317.247 21.2073 316.778 21.2073C316.308 21.2073 315.933 21.3854 315.654 21.7416C315.379 22.0977 315.241 22.5934 315.241 23.2286C315.241 23.8674 315.379 24.3649 315.654 24.7211C315.933 25.0772 316.308 25.2553 316.778 25.2553Z" fill="#1A1A1A"/>
<path d="M313.473 21.2734H310.818V26.1255H309.634V20.3316H313.473V21.2734Z" fill="#1A1A1A"/>
<path d="M307.861 25.4315C307.362 25.9676 306.695 26.2356 305.862 26.2356C305.029 26.2356 304.362 25.9676 303.863 25.4315C303.363 24.8918 303.114 24.1575 303.114 23.2286C303.114 22.3033 303.363 21.5727 303.863 21.0366C304.362 20.4969 305.029 20.227 305.862 20.227C306.695 20.227 307.362 20.4969 307.861 21.0366C308.361 21.5727 308.61 22.3033 308.61 23.2286C308.61 24.1575 308.361 24.8918 307.861 25.4315ZM305.862 25.2553C306.336 25.2553 306.71 25.0772 306.985 24.7211C307.261 24.3649 307.399 23.8674 307.399 23.2286C307.399 22.5934 307.259 22.0977 306.98 21.7416C306.705 21.3854 306.332 21.2073 305.862 21.2073C305.392 21.2073 305.018 21.3854 304.738 21.7416C304.463 22.0977 304.325 22.5934 304.325 23.2286C304.325 23.8674 304.463 24.3649 304.738 24.7211C305.018 25.0772 305.392 25.2553 305.862 25.2553Z" fill="#1A1A1A"/>
<path d="M300.894 26.1255V23.6031H298.272V26.1255H297.088V20.3316H298.272V22.6668H300.894V20.3316H302.078V26.1255H300.894Z" fill="#1A1A1A"/>
<path d="M293.789 23.0523H292.787V25.1892H293.789C294.131 25.1892 294.403 25.0919 294.605 24.8973C294.81 24.699 294.913 24.4402 294.913 24.1208C294.913 23.7977 294.81 23.5388 294.605 23.3442C294.399 23.1496 294.127 23.0523 293.789 23.0523ZM291.603 26.1255V20.3316H292.787V22.1216H293.894C294.566 22.1216 295.1 22.3033 295.497 22.6668C295.897 23.0266 296.097 23.5113 296.097 24.1208C296.097 24.7339 295.897 25.2223 295.497 25.5857C295.1 25.9456 294.566 26.1255 293.894 26.1255H291.603Z" fill="#1A1A1A"/>
<path d="M287.197 23.4874C287.175 23.8325 287.14 24.1373 287.093 24.4016C287.045 24.666 286.975 24.9138 286.883 25.1452C286.791 25.3728 286.679 25.5619 286.547 25.7124C286.415 25.8593 286.25 25.9749 286.052 26.0594C285.857 26.1402 285.631 26.1805 285.374 26.1805C285.213 26.1805 285.079 26.1604 284.972 26.12V25.0736C285.071 25.1029 285.176 25.1176 285.286 25.1176C285.55 25.1176 285.745 24.9744 285.87 24.688C285.995 24.4016 286.075 23.9849 286.112 23.4378L286.31 20.3316H290.325V26.1255H289.141V21.2734H287.357L287.197 23.4874Z" fill="#1A1A1A"/>
<path d="M281.53 25.2828C281.949 25.2828 282.299 25.1562 282.582 24.9028C282.868 24.6458 283.012 24.33 283.012 23.9555V23.4984L281.585 23.5865C281.229 23.6122 280.954 23.7004 280.759 23.8509C280.568 23.9978 280.473 24.196 280.473 24.4457C280.473 24.699 280.568 24.9028 280.759 25.057C280.954 25.2076 281.211 25.2828 281.53 25.2828ZM281.2 26.2246C280.63 26.2246 280.166 26.0631 279.806 25.74C279.45 25.4168 279.272 24.9964 279.272 24.4787C279.272 23.9721 279.459 23.57 279.834 23.2726C280.208 22.9715 280.739 22.8027 281.425 22.7659L283.012 22.6723V22.2262C283.012 21.9031 282.909 21.6516 282.703 21.4717C282.497 21.2881 282.213 21.1963 281.849 21.1963C281.512 21.1963 281.236 21.2716 281.023 21.4221C280.814 21.5727 280.682 21.7801 280.627 22.0445H279.503C279.536 21.5084 279.768 21.0715 280.197 20.7337C280.627 20.3959 281.192 20.227 281.894 20.227C282.595 20.227 283.153 20.3996 283.568 20.7447C283.986 21.0898 284.196 21.5525 284.196 22.1326V26.1255H283.056V25.1727H283.028C282.863 25.4921 282.611 25.7473 282.274 25.9382C281.939 26.1291 281.581 26.2246 281.2 26.2246Z" fill="#1A1A1A"/>
<path d="M277.025 26.1255V23.6031H274.403V26.1255H273.219V20.3316H274.403V22.6668H277.025V20.3316H278.209V26.1255H277.025Z" fill="#1A1A1A"/>
<path d="M271.446 25.4315C270.946 25.9676 270.28 26.2356 269.446 26.2356C268.613 26.2356 267.947 25.9676 267.447 25.4315C266.948 24.8918 266.698 24.1575 266.698 23.2286C266.698 22.3033 266.948 21.5727 267.447 21.0366C267.947 20.4969 268.613 20.227 269.446 20.227C270.28 20.227 270.946 20.4969 271.446 21.0366C271.945 21.5727 272.195 22.3033 272.195 23.2286C272.195 24.1575 271.945 24.8918 271.446 25.4315ZM269.446 25.2553C269.92 25.2553 270.295 25.0772 270.57 24.7211C270.845 24.3649 270.983 23.8674 270.983 23.2286C270.983 22.5934 270.844 22.0977 270.564 21.7416C270.289 21.3854 269.916 21.2073 269.446 21.2073C268.976 21.2073 268.602 21.3854 268.323 21.7416C268.048 22.0977 267.91 22.5934 267.91 23.2286C267.91 23.8674 268.048 24.3649 268.323 24.7211C268.602 25.0772 268.976 25.2553 269.446 25.2553Z" fill="#1A1A1A"/>
<path d="M261.781 26.1255H260.607V20.3316H261.781V24.3906H261.825L264.501 20.3316H265.674V26.1255H264.501V22.0555H264.457L261.781 26.1255Z" fill="#1A1A1A"/>
<path d="M259.638 22.1877H258.493C258.412 21.9013 258.258 21.6681 258.03 21.4882C257.802 21.3083 257.512 21.2183 257.16 21.2183C256.701 21.2183 256.332 21.4019 256.053 21.7691C255.777 22.1326 255.64 22.6191 255.64 23.2286C255.64 23.8527 255.777 24.3447 256.053 24.7046C256.332 25.0607 256.704 25.2388 257.171 25.2388C257.52 25.2388 257.808 25.1562 258.035 24.9909C258.263 24.822 258.419 24.5852 258.504 24.2805H259.649C259.565 24.8679 259.297 25.3416 258.845 25.7014C258.397 26.0575 257.835 26.2356 257.16 26.2356C256.326 26.2356 255.664 25.9658 255.172 25.426C254.68 24.8863 254.434 24.1538 254.434 23.2286C254.434 22.318 254.68 21.591 255.172 21.0476C255.667 20.5005 256.326 20.227 257.149 20.227C257.835 20.227 258.399 20.4143 258.84 20.7888C259.284 21.1596 259.55 21.6259 259.638 22.1877Z" fill="#1A1A1A"/>
<path d="M253.723 22.1877H252.578C252.497 21.9013 252.343 21.6681 252.115 21.4882C251.887 21.3083 251.597 21.2183 251.245 21.2183C250.786 21.2183 250.417 21.4019 250.138 21.7691C249.862 22.1326 249.725 22.6191 249.725 23.2286C249.725 23.8527 249.862 24.3447 250.138 24.7046C250.417 25.0607 250.789 25.2388 251.256 25.2388C251.605 25.2388 251.893 25.1562 252.12 24.9909C252.348 24.822 252.504 24.5852 252.589 24.2805H253.734C253.65 24.8679 253.382 25.3416 252.93 25.7014C252.482 26.0575 251.92 26.2356 251.245 26.2356C250.411 26.2356 249.749 25.9658 249.257 25.426C248.765 24.8863 248.519 24.1538 248.519 23.2286C248.519 22.318 248.765 21.591 249.257 21.0476C249.752 20.5005 250.411 20.227 251.234 20.227C251.92 20.227 252.484 20.4143 252.925 20.7888C253.369 21.1596 253.635 21.6259 253.723 22.1877Z" fill="#1A1A1A"/>
<path d="M246.156 21.6039C245.895 21.3248 245.559 21.1853 245.148 21.1853C244.737 21.1853 244.395 21.3267 244.124 21.6094C243.852 21.8884 243.701 22.2501 243.672 22.6943H246.569C246.554 22.2464 246.416 21.8829 246.156 21.6039ZM246.563 24.4237H247.692C247.608 24.9561 247.336 25.3911 246.877 25.7289C246.418 26.0667 245.858 26.2356 245.198 26.2356C244.349 26.2356 243.681 25.9694 243.193 25.437C242.708 24.901 242.466 24.174 242.466 23.2561C242.466 22.3455 242.708 21.613 243.193 21.0586C243.681 20.5042 244.333 20.227 245.148 20.227C245.948 20.227 246.584 20.4895 247.054 21.0146C247.523 21.5359 247.758 22.2372 247.758 23.1184V23.526H243.666V23.5976C243.666 24.1042 243.808 24.51 244.091 24.8147C244.373 25.1194 244.751 25.2718 245.225 25.2718C245.559 25.2718 245.846 25.1947 246.084 25.0405C246.323 24.8863 246.483 24.6807 246.563 24.4237Z" fill="#1A1A1A"/>
<path d="M237.498 25.2443V21.2128C236.929 21.2275 236.477 21.4148 236.143 21.7746C235.813 22.1344 235.648 22.6191 235.648 23.2286C235.648 23.8417 235.813 24.3264 236.143 24.6825C236.477 25.0387 236.929 25.2259 237.498 25.2443ZM239.993 24.688C240.327 24.3282 240.494 23.8417 240.494 23.2286C240.494 22.6154 240.327 22.1307 239.993 21.7746C239.662 21.4184 239.213 21.2312 238.644 21.2128V25.2443C239.209 25.2296 239.659 25.0442 239.993 24.688ZM237.493 26.2026C236.564 26.1842 235.822 25.9088 235.268 25.3765C234.717 24.8404 234.441 24.1244 234.441 23.2286C234.441 22.3363 234.719 21.6222 235.273 21.0862C235.827 20.5501 236.567 20.2747 237.493 20.26V18.4536H238.649V20.26C239.571 20.2784 240.309 20.5538 240.863 21.0862C241.417 21.6185 241.695 22.3327 241.695 23.2286C241.695 24.1208 241.416 24.8349 240.858 25.3709C240.303 25.907 239.567 26.1842 238.649 26.2026V28.0421H237.493V26.2026Z" fill="#1A1A1A"/>
<path d="M232.927 25.4315C232.427 25.9676 231.761 26.2356 230.927 26.2356C230.094 26.2356 229.428 25.9676 228.928 25.4315C228.429 24.8918 228.179 24.1575 228.179 23.2286C228.179 22.3033 228.429 21.5727 228.928 21.0366C229.428 20.4969 230.094 20.227 230.927 20.227C231.761 20.227 232.427 20.4969 232.927 21.0366C233.426 21.5727 233.676 22.3033 233.676 23.2286C233.676 24.1575 233.426 24.8918 232.927 25.4315ZM230.927 25.2553C231.401 25.2553 231.776 25.0772 232.051 24.7211C232.326 24.3649 232.464 23.8674 232.464 23.2286C232.464 22.5934 232.324 22.0977 232.045 21.7416C231.77 21.3854 231.397 21.2073 230.927 21.2073C230.457 21.2073 230.083 21.3854 229.804 21.7416C229.529 22.0977 229.391 22.5934 229.391 23.2286C229.391 23.8674 229.529 24.3649 229.804 24.7211C230.083 25.0772 230.457 25.2553 230.927 25.2553Z" fill="#1A1A1A"/>
<path d="M224.969 20.238C225.707 20.238 226.298 20.5079 226.742 21.0476C227.186 21.5873 227.409 22.3143 227.409 23.2286C227.409 24.1428 227.188 24.8716 226.748 25.415C226.307 25.9547 225.721 26.2246 224.991 26.2246C224.58 26.2246 224.214 26.131 223.895 25.9437C223.579 25.7565 223.337 25.4995 223.168 25.1727H223.14V28.0421H221.951V20.3316H223.102V21.3285H223.124C223.296 20.9907 223.544 20.7245 223.867 20.5299C224.19 20.3353 224.558 20.238 224.969 20.238ZM224.655 25.2167C225.125 25.2167 225.497 25.0387 225.773 24.6825C226.048 24.3227 226.186 23.838 226.186 23.2286C226.186 22.6227 226.048 22.1399 225.773 21.7801C225.497 21.4203 225.125 21.2404 224.655 21.2404C224.2 21.2404 223.832 21.4221 223.553 21.7856C223.274 22.1491 223.135 22.6301 223.135 23.2286C223.135 23.8307 223.272 24.3135 223.548 24.677C223.827 25.0368 224.196 25.2167 224.655 25.2167Z" fill="#1A1A1A"/>
<path d="M219.472 26.1255V21.2734H216.906V26.1255H215.722V20.3316H220.662V26.1255H219.472Z" fill="#1A1A1A"/>
<path d="M327.358 6.63543V7.5772H325.54V12.4293H324.356V7.5772H322.539V6.63543H327.358Z" fill="#1A1A1A"/>
<path d="M317.714 14.5882C317.49 14.5882 317.328 14.579 317.229 14.5606V13.5968C317.288 13.6115 317.416 13.6189 317.615 13.6189C317.894 13.6189 318.112 13.5546 318.27 13.4261C318.428 13.3013 318.553 13.0901 318.644 12.7927C318.644 12.7891 318.663 12.7285 318.7 12.611L318.749 12.4348L316.656 6.63543H317.945L319.415 11.3498H319.432L320.902 6.63543H322.158L319.983 12.7322C319.737 13.4334 319.449 13.9181 319.118 14.1861C318.788 14.4542 318.319 14.5882 317.714 14.5882Z" fill="#1A1A1A"/>
<path d="M316.265 6.63543V7.5772H314.448V12.4293H313.264V7.5772H311.446V6.63543H316.265Z" fill="#1A1A1A"/>
<path d="M306.688 12.4293H305.515V6.63543H306.688V10.6944H306.732L309.408 6.63543H310.581V12.4293H309.408V8.35926H309.364L306.688 12.4293Z" fill="#1A1A1A"/>
<path d="M304.645 6.63543V7.5772H302.827V12.4293H301.643V7.5772H299.826V6.63543H304.645Z" fill="#1A1A1A"/>
<path d="M299.391 8.49145H298.245C298.164 8.20506 298.01 7.97191 297.782 7.792C297.555 7.61209 297.265 7.52214 296.912 7.52214C296.453 7.52214 296.084 7.70572 295.805 8.07288C295.53 8.43637 295.392 8.92286 295.392 9.53235C295.392 10.1565 295.53 10.6485 295.805 11.0083C296.084 11.3645 296.457 11.5426 296.923 11.5426C297.272 11.5426 297.56 11.46 297.788 11.2947C298.016 11.1258 298.172 10.889 298.256 10.5843H299.402C299.317 11.1717 299.049 11.6454 298.597 12.0052C298.15 12.3613 297.588 12.5394 296.912 12.5394C296.079 12.5394 295.416 12.2696 294.924 11.7298C294.432 11.1901 294.186 10.4576 294.186 9.53235C294.186 8.62179 294.432 7.89481 294.924 7.35141C295.42 6.80434 296.079 6.5308 296.901 6.5308C297.588 6.5308 298.151 6.71805 298.592 7.09256C299.036 7.46339 299.302 7.92969 299.391 8.49145Z" fill="#1A1A1A"/>
<path d="M291.972 12.4293V9.90685H289.351V12.4293H288.167V6.63543H289.351V8.97058H291.972V6.63543H293.156V12.4293H291.972Z" fill="#1A1A1A"/>
<path d="M282.995 12.4293H281.822V6.63543H282.995V10.6944H283.039L285.716 6.63543H286.889V12.4293H285.716V8.35926H285.671L282.995 12.4293Z" fill="#1A1A1A"/>
<path d="M274.359 12.4293H273.186V6.63543H274.359V10.6944H274.403L277.08 6.63543H278.253V12.4293H277.08V8.35926H277.036L274.359 12.4293ZM273.974 4.091H274.778C274.781 4.40676 274.877 4.66928 275.064 4.87856C275.251 5.08417 275.497 5.18698 275.802 5.18698C276.11 5.18698 276.358 5.08417 276.546 4.87856C276.733 4.66928 276.828 4.40676 276.832 4.091H277.636C277.636 4.61237 277.467 5.0346 277.129 5.35771C276.792 5.67714 276.349 5.83685 275.802 5.83685C275.259 5.83685 274.818 5.67714 274.48 5.35771C274.142 5.0346 273.974 4.61237 273.974 4.091Z" fill="#1A1A1A"/>
<path d="M268.015 12.4293H266.842V6.63543H268.015V10.6944H268.059L270.736 6.63543H271.909V12.4293H270.736V8.35926H270.691L268.015 12.4293Z" fill="#1A1A1A"/>
<path d="M263.433 9.3561L266.098 12.4293H264.606L262.309 9.75815H262.265V12.4293H261.081V6.63543H262.265V9.11378H262.309L264.578 6.63543H265.999L263.433 9.3561Z" fill="#1A1A1A"/>
<path d="M260.112 8.49145H258.966C258.885 8.20506 258.731 7.97191 258.504 7.792C258.276 7.61209 257.986 7.52214 257.633 7.52214C257.174 7.52214 256.805 7.70572 256.526 8.07288C256.251 8.43637 256.113 8.92286 256.113 9.53235C256.113 10.1565 256.251 10.6485 256.526 11.0083C256.805 11.3645 257.178 11.5426 257.644 11.5426C257.993 11.5426 258.281 11.46 258.509 11.2947C258.737 11.1258 258.893 10.889 258.977 10.5843H260.123C260.038 11.1717 259.77 11.6454 259.319 12.0052C258.871 12.3613 258.309 12.5394 257.633 12.5394C256.8 12.5394 256.137 12.2696 255.645 11.7298C255.153 11.1901 254.907 10.4576 254.907 9.53235C254.907 8.62179 255.153 7.89481 255.645 7.35141C256.141 6.80434 256.8 6.5308 257.622 6.5308C258.309 6.5308 258.873 6.71805 259.313 7.09256C259.757 7.46339 260.024 7.92969 260.112 8.49145Z" fill="#1A1A1A"/>
<path d="M251.796 7.5001H250.578V9.02015H251.68C252.352 9.02015 252.688 8.76314 252.688 8.24911C252.688 8.01045 252.611 7.82687 252.456 7.69836C252.302 7.56619 252.082 7.5001 251.796 7.5001ZM251.757 9.85177H250.578V11.5646H251.889C252.227 11.5646 252.484 11.493 252.66 11.3498C252.836 11.2029 252.925 10.99 252.925 10.7109C252.925 10.1382 252.535 9.85177 251.757 9.85177ZM249.405 12.4293V6.63543H252.038C252.603 6.63543 253.046 6.76761 253.365 7.03196C253.688 7.29265 253.85 7.65247 253.85 8.11142C253.85 8.4125 253.754 8.6842 253.563 8.92652C253.376 9.16518 253.143 9.31021 252.864 9.36161V9.40567C253.238 9.45707 253.54 9.60577 253.767 9.85177C253.995 10.0941 254.109 10.397 254.109 10.7605C254.109 11.2709 253.925 11.6766 253.558 11.9776C253.194 12.2787 252.699 12.4293 252.071 12.4293H249.405Z" fill="#1A1A1A"/>
<path d="M247.632 11.7353C247.132 12.2714 246.466 12.5394 245.632 12.5394C244.799 12.5394 244.133 12.2714 243.633 11.7353C243.134 11.1956 242.884 10.4613 242.884 9.53235C242.884 8.6071 243.134 7.87645 243.633 7.34039C244.133 6.80066 244.799 6.5308 245.632 6.5308C246.466 6.5308 247.132 6.80066 247.632 7.34039C248.131 7.87645 248.381 8.6071 248.381 9.53235C248.381 10.4613 248.131 11.1956 247.632 11.7353ZM245.632 11.5591C246.106 11.5591 246.481 11.381 246.756 11.0249C247.031 10.6687 247.169 10.1712 247.169 9.53235C247.169 8.89716 247.03 8.40149 246.75 8.04535C246.475 7.6892 246.102 7.51112 245.632 7.51112C245.163 7.51112 244.788 7.6892 244.509 8.04535C244.234 8.40149 244.096 8.89716 244.096 9.53235C244.096 10.1712 244.234 10.6687 244.509 11.0249C244.788 11.381 245.163 11.5591 245.632 11.5591Z" fill="#1A1A1A"/>
<path d="M239.872 9.3561L242.537 12.4293H241.045L238.748 9.75815H238.704V12.4293H237.52V6.63543H238.704V9.11378H238.748L241.017 6.63543H242.438L239.872 9.3561Z" fill="#1A1A1A"/>
<path d="M236.551 8.49145H235.405C235.324 8.20506 235.17 7.97191 234.943 7.792C234.715 7.61209 234.425 7.52214 234.072 7.52214C233.613 7.52214 233.244 7.70572 232.965 8.07288C232.69 8.43637 232.552 8.92286 232.552 9.53235C232.552 10.1565 232.69 10.6485 232.965 11.0083C233.244 11.3645 233.617 11.5426 234.083 11.5426C234.432 11.5426 234.72 11.46 234.948 11.2947C235.176 11.1258 235.332 10.889 235.416 10.5843H236.562C236.477 11.1717 236.209 11.6454 235.758 12.0052C235.31 12.3613 234.748 12.5394 234.072 12.5394C233.239 12.5394 232.576 12.2696 232.084 11.7298C231.592 11.1901 231.346 10.4576 231.346 9.53235C231.346 8.62179 231.592 7.89481 232.084 7.35141C232.58 6.80434 233.239 6.5308 234.061 6.5308C234.748 6.5308 235.312 6.71805 235.752 7.09256C236.196 7.46339 236.463 7.92969 236.551 8.49145Z" fill="#1A1A1A"/>
<path d="M229.832 11.7353C229.333 12.2714 228.666 12.5394 227.833 12.5394C226.999 12.5394 226.333 12.2714 225.833 11.7353C225.334 11.1956 225.084 10.4613 225.084 9.53235C225.084 8.6071 225.334 7.87645 225.833 7.34039C226.333 6.80066 226.999 6.5308 227.833 6.5308C228.666 6.5308 229.333 6.80066 229.832 7.34039C230.331 7.87645 230.581 8.6071 230.581 9.53235C230.581 10.4613 230.331 11.1956 229.832 11.7353ZM227.833 11.5591C228.306 11.5591 228.681 11.381 228.956 11.0249C229.232 10.6687 229.369 10.1712 229.369 9.53235C229.369 8.89716 229.23 8.40149 228.951 8.04535C228.675 7.6892 228.303 7.51112 227.833 7.51112C227.363 7.51112 226.988 7.6892 226.709 8.04535C226.434 8.40149 226.296 8.89716 226.296 9.53235C226.296 10.1712 226.434 10.6687 226.709 11.0249C226.988 11.381 227.363 11.5591 227.833 11.5591Z" fill="#1A1A1A"/>
<path d="M223.911 12.4293H222.782V6.58037H222.743L220.348 12.3687H219.433L217.032 6.58037H216.994V12.4293H215.87V4.48203H217.297L219.869 10.755H219.913L222.479 4.48203H223.911V12.4293Z" fill="#1A1A1A"/>
<line x1="203.748" y1="1.95569" x2="203.748" y2="43.0443" stroke="#1A1A1A" stroke-width="1.5"/>
<rect x="77.7588" y="42.3763" width="121.377" height="19.2351" rx="9.61756" transform="rotate(-5.0246 77.7588 42.3763)" fill="#2663F0"/>
<path d="M190.833 41.4577C190.555 41.2086 190.217 41.1016 189.817 41.1368C189.417 41.172 189.097 41.3387 188.857 41.6369C188.616 41.9315 188.501 42.2961 188.51 42.7308L191.328 42.483C191.275 42.0486 191.11 41.7068 190.833 41.4577ZM191.47 44.1655L192.568 44.069C192.532 44.594 192.305 45.0404 191.887 45.4082C191.47 45.776 190.94 45.9881 190.297 46.0447C189.472 46.1172 188.799 45.9154 188.279 45.4394C187.761 44.9594 187.464 44.2731 187.385 43.3803C187.307 42.4946 187.48 41.7615 187.904 41.1808C188.332 40.5998 188.942 40.2745 189.735 40.2048C190.513 40.1363 191.153 40.3373 191.655 40.8078C192.157 41.2747 192.446 41.9367 192.521 42.7938L192.556 43.1902L188.576 43.5401L188.582 43.6097C188.625 44.1025 188.797 44.4851 189.099 44.7573C189.4 45.0295 189.78 45.1454 190.241 45.1049C190.566 45.0763 190.838 44.9768 191.057 44.8064C191.276 44.636 191.414 44.4224 191.47 44.1655Z" fill="white"/>
<path d="M182.847 46.5917L181.706 46.692L181.21 41.0568L182.351 40.9565L182.699 44.9043L182.741 44.9006L184.998 40.7238L186.139 40.6235L186.634 46.2587L185.493 46.359L185.145 42.4004L185.102 42.4042L182.847 46.5917Z" fill="white"/>
<path d="M179.3 46.9035L179.085 44.4501L176.535 44.6743L176.751 47.1277L175.599 47.2289L175.104 41.5937L176.255 41.4924L176.455 43.7637L179.005 43.5395L178.805 41.2683L179.957 41.167L180.452 46.8022L179.3 46.9035Z" fill="white"/>
<path d="M171.718 46.7442C172.126 46.7084 172.456 46.5552 172.709 46.2846C172.966 46.0102 173.078 45.6908 173.046 45.3266L173.007 44.882L171.627 45.0896C171.283 45.1451 171.022 45.2543 170.846 45.4174C170.673 45.5766 170.597 45.7776 170.618 46.0204C170.64 46.2668 170.75 46.4569 170.949 46.5905C171.151 46.7203 171.408 46.7715 171.718 46.7442ZM171.478 47.6885C170.924 47.7371 170.458 47.6197 170.081 47.3362C169.707 47.0524 169.498 46.6588 169.453 46.1552C169.41 45.6624 169.558 45.2554 169.897 44.9341C170.235 44.6092 170.737 44.3996 171.401 44.3051L172.936 44.0784L172.898 43.6446C172.87 43.3303 172.749 43.0945 172.533 42.9371C172.318 42.7761 172.033 42.7111 171.68 42.7422C171.351 42.7711 171.09 42.8679 170.895 43.0325C170.705 43.1968 170.594 43.4099 170.563 43.6717L169.47 43.7678C169.457 43.2436 169.644 42.7988 170.033 42.4336C170.422 42.0683 170.958 41.8557 171.64 41.7957C172.322 41.7357 172.879 41.8558 173.312 42.156C173.749 42.4559 173.992 42.888 174.042 43.4522L174.383 47.3358L173.274 47.4333L173.193 46.5066L173.166 46.509C173.033 46.8338 172.81 47.1035 172.498 47.3181C172.189 47.5323 171.849 47.6558 171.478 47.6885Z" fill="white"/>
<path d="M166.114 43.2316L164.93 43.3356L165.06 44.8141L166.132 44.7199C166.785 44.6624 167.09 44.3837 167.046 43.8838C167.025 43.6516 166.935 43.4797 166.774 43.3679C166.613 43.2525 166.393 43.2071 166.114 43.2316ZM166.278 45.5222L165.131 45.6229L165.278 47.2889L166.553 47.1768C166.881 47.1479 167.125 47.0563 167.284 46.9019C167.443 46.744 167.511 46.5294 167.487 46.258C167.438 45.7009 167.035 45.4556 166.278 45.5222ZM164.211 48.2302L163.715 42.595L166.276 42.3698C166.826 42.3215 167.267 42.4122 167.601 42.642C167.937 42.8679 168.125 43.2041 168.164 43.6505C168.19 43.9433 168.121 44.2157 167.956 44.4678C167.794 44.7159 167.579 44.8769 167.312 44.9507L167.316 44.9936C167.685 45.0116 167.99 45.1305 168.233 45.3503C168.475 45.5665 168.612 45.8514 168.643 46.2049C168.686 46.7013 168.542 47.1116 168.211 47.4358C167.883 47.7597 167.414 47.9485 166.803 48.0022L164.211 48.2302Z" fill="white"/>
<path d="M162.427 47.7069C161.987 48.271 161.362 48.5887 160.551 48.6599C159.74 48.7312 159.069 48.5275 158.538 48.0488C158.006 47.5666 157.7 46.8737 157.621 45.9702C157.542 45.0703 157.722 44.3383 158.162 43.7742C158.602 43.2065 159.227 42.8871 160.037 42.8158C160.848 42.7445 161.519 42.95 162.051 43.4323C162.582 43.911 162.888 44.6003 162.967 45.5002C163.046 46.4037 162.866 47.1392 162.427 47.7069ZM160.467 47.7065C160.928 47.6659 161.277 47.4607 161.514 47.0908C161.752 46.7208 161.843 46.2252 161.788 45.6038C161.734 44.986 161.556 44.5158 161.254 44.1933C160.956 43.8704 160.578 43.7291 160.121 43.7693C159.664 43.8095 159.315 44.0147 159.074 44.385C158.837 44.7549 158.745 45.2488 158.799 45.8666C158.854 46.488 159.03 46.9601 159.329 47.2829C159.631 47.6055 160.01 47.7466 160.467 47.7065Z" fill="white"/>
<path d="M154.803 49.1653C154.143 49.2234 153.587 49.1193 153.135 48.8531C152.687 48.5866 152.415 48.1967 152.32 47.6833L153.461 47.583C153.539 47.8208 153.688 47.9966 153.906 48.1106C154.125 48.2209 154.397 48.2618 154.721 48.2332C155.086 48.2012 155.361 48.0996 155.548 47.9285C155.738 47.757 155.822 47.5445 155.799 47.291C155.751 46.7446 155.345 46.505 154.581 46.5722L153.756 46.6447L153.681 45.793L154.49 45.7219C155.147 45.6641 155.454 45.3888 155.411 44.896C155.391 44.671 155.293 44.4997 155.117 44.382C154.941 44.2607 154.694 44.2141 154.376 44.242C154.065 44.2693 153.817 44.3541 153.632 44.4964C153.446 44.6386 153.344 44.8222 153.324 45.0471L152.215 45.1446C152.232 44.6357 152.423 44.2194 152.791 43.8956C153.162 43.5679 153.661 43.3764 154.29 43.3211C154.961 43.2621 155.491 43.3559 155.88 43.6024C156.272 43.845 156.489 44.2056 156.531 44.6841C156.556 44.9734 156.497 45.236 156.352 45.4718C156.207 45.7077 156.002 45.8714 155.736 45.9632L155.74 46.006C156.105 46.0567 156.389 46.1847 156.594 46.3897C156.803 46.5945 156.922 46.8594 156.95 47.1844C156.998 47.72 156.825 48.1689 156.432 48.5309C156.043 48.8926 155.5 49.1041 154.803 49.1653Z" fill="white"/>
<path d="M148.888 48.7515C149.295 48.7157 149.626 48.5625 149.879 48.2919C150.136 48.0174 150.248 47.6981 150.216 47.3338L150.177 46.8892L148.797 47.0969C148.453 47.1523 148.192 47.2616 148.016 47.4247C147.843 47.5838 147.767 47.7848 147.788 48.0277C147.81 48.2741 147.92 48.4641 148.119 48.5978C148.321 48.7275 148.578 48.7788 148.888 48.7515ZM148.647 49.6957C148.094 49.7444 147.628 49.627 147.251 49.3435C146.877 49.0597 146.668 48.666 146.623 48.1625C146.58 47.6697 146.728 47.2626 147.067 46.9413C147.405 46.6165 147.907 46.4068 148.571 46.3124L150.106 46.0857L150.068 45.6518C150.04 45.3375 149.919 45.1017 149.703 44.9443C149.488 44.7833 149.203 44.7184 148.85 44.7495C148.521 44.7784 148.26 44.8751 148.065 45.0397C147.875 45.2041 147.764 45.4171 147.733 45.679L146.64 45.775C146.626 45.2508 146.814 44.8061 147.203 44.4408C147.592 44.0755 148.127 43.8629 148.81 43.8029C149.492 43.743 150.049 43.8631 150.482 44.1633C150.919 44.4632 151.162 44.8952 151.212 45.4595L151.553 49.3431L150.444 49.4406L150.363 48.5139L150.336 48.5162C150.203 48.841 149.98 49.1107 149.668 49.3253C149.359 49.5396 149.019 49.6631 148.647 49.6957Z" fill="white"/>
<path d="M143.111 44.3148C143.829 44.2516 144.427 44.4636 144.905 44.9505C145.383 45.4375 145.661 46.1256 145.74 47.0148C145.818 47.904 145.666 48.6317 145.284 49.1979C144.901 49.7605 144.355 50.0731 143.644 50.1356C143.244 50.1708 142.881 50.1109 142.554 49.9561C142.231 49.801 141.973 49.5717 141.781 49.2683L141.754 49.2707L142 52.0615L140.843 52.1633L140.183 44.6639L141.303 44.5655L141.388 45.535L141.41 45.5332C141.548 45.1899 141.767 44.9098 142.064 44.6929C142.362 44.476 142.711 44.3499 143.111 44.3148ZM143.231 49.184C143.688 49.1439 144.036 48.9388 144.273 48.5688C144.51 48.1953 144.602 47.7122 144.55 47.1194C144.499 46.5301 144.323 46.0723 144.025 45.7459C143.726 45.4194 143.348 45.2763 142.891 45.3165C142.448 45.3555 142.107 45.5636 141.866 45.941C141.626 46.3184 141.532 46.7982 141.583 47.3803C141.634 47.9659 141.809 48.4238 142.108 48.7538C142.411 49.0799 142.785 49.2233 143.231 49.184Z" fill="white"/>
<path d="M137.003 50.7303C136.117 50.8082 135.417 50.5818 134.903 50.0513C134.392 49.5204 134.088 48.6996 133.99 47.589C133.898 46.5427 133.929 45.6888 134.083 45.0275C134.241 44.3623 134.527 43.8549 134.943 43.5053C135.362 43.1553 135.931 42.9362 136.65 42.8477L137.152 42.7874C137.846 42.694 138.329 42.558 138.601 42.3793L138.685 43.3382C138.616 43.4162 138.452 43.4954 138.193 43.5758C137.934 43.6561 137.637 43.7182 137.303 43.762L136.811 43.8214C136.437 43.8687 136.126 43.95 135.877 44.0655C135.631 44.177 135.433 44.3384 135.283 44.5496C135.132 44.7572 135.022 45.0025 134.953 45.2857C134.884 45.5653 134.841 45.9145 134.824 46.3335L134.867 46.3297C135.016 45.9819 135.248 45.7061 135.561 45.5022C135.877 45.2944 136.257 45.1711 136.7 45.1322C137.46 45.0653 138.087 45.2585 138.581 45.7117C139.077 46.1647 139.362 46.8054 139.435 47.6339C139.513 48.5195 139.335 49.2387 138.902 49.7914C138.468 50.3442 137.835 50.6571 137.003 50.7303ZM136.907 49.7617C137.386 49.7196 137.743 49.5245 137.978 49.1763C138.214 48.8245 138.305 48.3504 138.253 47.754C138.203 47.1862 138.032 46.7568 137.74 46.4658C137.448 46.1748 137.063 46.0503 136.584 46.0924C136.102 46.1347 135.741 46.3248 135.501 46.6626C135.264 47.0001 135.171 47.4528 135.221 48.0206C135.274 48.6205 135.446 49.0714 135.739 49.3731C136.036 49.6745 136.425 49.8041 136.907 49.7617Z" fill="white"/>
<path d="M132.697 50.3208C132.257 50.8848 131.632 51.2025 130.822 51.2738C130.011 51.3451 129.34 51.1414 128.808 50.6627C128.277 50.1804 127.971 49.4876 127.891 48.5841C127.812 47.6841 127.993 46.9521 128.433 46.3881C128.872 45.8204 129.497 45.5009 130.308 45.4297C131.118 45.3584 131.79 45.5639 132.321 46.0461C132.853 46.5248 133.158 47.2141 133.237 48.114C133.317 49.0175 133.137 49.7531 132.697 50.3208ZM130.738 50.3203C131.198 50.2798 131.547 50.0746 131.785 49.7046C132.022 49.3347 132.114 48.839 132.059 48.2177C132.005 47.5998 131.827 47.1297 131.525 46.8071C131.226 46.4843 130.849 46.343 130.392 46.3831C129.934 46.4233 129.585 46.6286 129.345 46.9988C129.107 47.3688 129.016 47.8626 129.07 48.4805C129.125 49.1018 129.301 49.5739 129.599 49.8968C129.901 50.2193 130.281 50.3605 130.738 50.3203Z" fill="white"/>
<path d="M123.22 47.4023C122.943 47.1532 122.604 47.0462 122.204 47.0814C121.804 47.1165 121.484 47.2832 121.244 47.5814C121.004 47.8761 120.888 48.2407 120.898 48.6753L123.715 48.4276C123.663 47.9932 123.498 47.6514 123.22 47.4023ZM123.858 50.1101L124.956 50.0135C124.919 50.5385 124.692 50.985 124.275 51.3527C123.857 51.7205 123.327 51.9327 122.684 51.9892C121.859 52.0617 121.187 51.86 120.666 51.3839C120.149 50.904 119.851 50.2176 119.773 49.3248C119.695 48.4392 119.868 47.706 120.292 47.1254C120.719 46.5444 121.33 46.219 122.122 46.1493C122.901 46.0809 123.541 46.2819 124.043 46.7524C124.545 47.2193 124.833 47.8813 124.909 48.7383L124.944 49.1347L120.964 49.4846L120.97 49.5543C121.013 50.0471 121.185 50.4296 121.486 50.7018C121.787 50.9741 122.168 51.0899 122.629 51.0494C122.954 51.0209 123.226 50.9214 123.445 50.751C123.664 50.5806 123.801 50.3669 123.858 50.1101Z" fill="white"/>
<path d="M117.328 47.9204C117.051 47.6712 116.712 47.5643 116.312 47.5994C115.912 47.6346 115.592 47.8013 115.352 48.0995C115.112 48.3941 114.996 48.7588 115.006 49.1934L117.823 48.9457C117.771 48.5112 117.606 48.1695 117.328 47.9204ZM117.966 50.6281L119.064 50.5316C119.027 51.0566 118.8 51.503 118.383 51.8708C117.965 52.2386 117.435 52.4508 116.792 52.5073C115.967 52.5798 115.295 52.378 114.774 51.902C114.257 51.422 113.959 50.7357 113.881 49.8429C113.803 48.9573 113.976 48.2241 114.4 47.6434C114.827 47.0624 115.437 46.7371 116.23 46.6674C117.009 46.5989 117.649 46.7999 118.151 47.2704C118.653 47.7373 118.941 48.3993 119.017 49.2564L119.051 49.6528L115.071 50.0027L115.078 50.0723C115.121 50.5652 115.293 50.9477 115.594 51.2199C115.895 51.4921 116.276 51.608 116.737 51.5675C117.062 51.5389 117.334 51.4394 117.553 51.269C117.771 51.0986 117.909 50.885 117.966 50.6281Z" fill="white"/>
<path d="M105.887 53.3581L105.392 47.7228L106.543 47.6216L106.958 52.3408L108.849 52.1746L108.434 47.4553L109.586 47.3541L110.001 52.0733L111.892 51.9071L111.477 47.1878L112.628 47.0866L113.124 52.7218L105.887 53.3581Z" fill="white"/>
<path d="M104.608 49.6109L103.493 49.7089C103.39 49.4373 103.22 49.2237 102.984 49.0682C102.747 48.9126 102.457 48.8499 102.114 48.8801C101.668 48.9193 101.325 49.1294 101.085 49.5104C100.848 49.8875 100.756 50.3725 100.808 50.9653C100.861 51.5724 101.037 52.0391 101.336 52.3655C101.638 52.6881 102.015 52.8294 102.469 52.7895C102.808 52.7597 103.081 52.6547 103.289 52.4745C103.496 52.2908 103.627 52.0471 103.683 51.7435L104.797 51.6455C104.765 52.2241 104.545 52.7077 104.137 53.0963C103.732 53.481 103.2 53.7023 102.543 53.76C101.733 53.8313 101.065 53.6255 100.54 53.1426C100.016 52.6597 99.7137 51.9683 99.6346 51.0684C99.5567 50.1828 99.7338 49.4547 100.166 48.8841C100.601 48.3096 101.219 47.9872 102.019 47.9168C102.687 47.8581 103.251 47.992 103.711 48.3186C104.175 48.6413 104.474 49.0721 104.608 49.6109Z" fill="white"/>
<path d="M97.7398 54.0744L97.2443 48.4392L98.3906 48.3384L98.8861 53.9736L97.7398 54.0744ZM94.5844 51.3397L93.6094 51.4254L93.7922 53.5038L94.7671 53.4181C95.0992 53.3889 95.3552 53.271 95.5349 53.0645C95.7179 52.8541 95.7958 52.5935 95.7685 52.2828C95.7409 51.9686 95.6187 51.7256 95.4021 51.5539C95.1855 51.3822 94.9129 51.3108 94.5844 51.3397ZM92.7206 54.5157L92.2251 48.8805L93.3768 48.7792L93.5298 50.5201L94.6065 50.4255C95.2601 50.368 95.7952 50.4991 96.212 50.8187C96.632 51.1345 96.8681 51.5888 96.9202 52.1816C96.9726 52.7779 96.8197 53.27 96.4616 53.6578C96.1067 54.0417 95.6025 54.2623 94.9489 54.3198L92.7206 54.5157Z" fill="white"/>
<path d="M89.0887 54.835L85.9872 55.1077L85.3076 47.378L88.3931 47.1067C89.0787 47.0465 89.6442 47.1749 90.0896 47.492C90.5346 47.8055 90.7827 48.2534 90.8338 48.8355C90.87 49.2461 90.7684 49.6257 90.5291 49.9743C90.2931 50.3189 89.9851 50.5403 89.6051 50.6385L89.6088 50.6814C90.1427 50.6956 90.5856 50.8618 90.9374 51.1799C91.289 51.4945 91.4872 51.9071 91.5321 52.4178C91.592 53.0999 91.4052 53.6561 90.9716 54.0865C90.5377 54.5133 89.9101 54.7628 89.0887 54.835ZM86.5937 48.2528L86.7967 50.5615L88.1412 50.4433C88.659 50.3978 89.0481 50.2592 89.3084 50.0276C89.5688 49.796 89.6821 49.4891 89.6486 49.107C89.6172 48.7499 89.4751 48.4853 89.2225 48.3132C88.9698 48.1411 88.6257 48.0741 88.19 48.1124L86.5937 48.2528ZM87.1009 54.0219L88.7561 53.8764C89.2954 53.829 89.6965 53.684 89.9595 53.4413C90.2224 53.1987 90.3355 52.8685 90.2988 52.4506C90.2247 51.6079 89.6127 51.237 88.4628 51.3381L86.8772 51.4775L87.1009 54.0219Z" fill="white"/>
</svg>
