<svg width="215" height="47" viewBox="0 0 215 47" fill="none" xmlns="http://www.w3.org/2000/svg">
<path d="M190.182 47C185.424 47 181.247 46.0158 177.652 44.0474C174.092 42.0791 171.314 39.3474 169.316 35.8526C167.319 32.3175 166.32 28.2 166.32 23.5C166.32 18.8 167.319 14.7026 169.316 11.2077C171.314 7.67265 174.092 4.92094 177.652 2.95257C181.247 0.984189 185.424 0 190.182 0C194.94 0 199.099 0.984189 202.658 2.95257C206.254 4.92094 209.051 7.67265 211.048 11.2077C213.046 14.7026 214.045 18.8 214.045 23.5C214.045 28.2 213.046 32.3175 211.048 35.8526C209.051 39.3474 206.254 42.0791 202.658 44.0474C199.099 46.0158 194.94 47 190.182 47ZM190.182 37.9013C193.16 37.9013 195.721 37.3188 197.864 36.1538C200.043 34.9889 201.714 33.3218 202.876 31.1526C204.075 28.9833 204.674 26.4325 204.674 23.5C204.674 20.5675 204.075 18.0167 202.876 15.8474C201.714 13.6782 200.043 12.0111 197.864 10.8462C195.721 9.6812 193.16 9.09872 190.182 9.09872C187.24 9.09872 184.68 9.6812 182.5 10.8462C180.321 12.0111 178.632 13.6782 177.434 15.8474C176.272 18.0167 175.69 20.5675 175.69 23.5C175.69 26.4325 176.272 28.9833 177.434 31.1526C178.632 33.3218 180.321 34.9889 182.5 36.1538C184.68 37.3188 187.24 37.9013 190.182 37.9013Z" fill="white"/>
<path d="M159.95 0.903845V46.0962H150.743V5.30256L154.938 9.94231H123.285L127.48 5.30256V46.0962H118.218V0.903845H159.95Z" fill="white"/>
<path d="M65.7062 46.0962V0.903845H74.7499V40.9141L71.9714 40.3115L97.7951 0.903845H109.835V46.0962H100.791V5.54359L103.57 6.14615L77.4195 46.0962H65.7062Z" fill="white"/>
<path d="M57.3677 0.903845V46.0962H48.5419V4.33846L50.8846 4.51923L33.4509 46.0962H23.9168L6.48315 4.63974L8.77132 4.39872V46.0962H0V0.903845H14.2194L30.6724 41.1551H26.6953L43.1484 0.903845H57.3677Z" fill="white"/>
</svg>
