<svg width="82" height="47" viewBox="0 0 82 47" fill="none" xmlns="http://www.w3.org/2000/svg">
<path d="M36.8743 21.4732C36.3633 21.2761 35.695 21.217 34.9678 21.217H30.9188V19.9552H37.8767V17.7866H28.0688V27.1709H34.7123C35.6361 27.1709 36.3239 27.092 36.835 26.8948C37.9161 26.4807 38.6433 25.4753 38.6433 24.1545C38.6433 22.8139 37.9553 21.8873 36.8743 21.4732ZM35.4591 24.7262C35.3019 24.7854 35.0857 24.805 34.8104 24.805H30.9188V23.3067H34.8104C35.125 23.3067 35.3804 23.3266 35.5771 23.425C35.8129 23.5434 35.9308 23.7603 35.9308 24.0361C35.9308 24.3121 35.7933 24.6079 35.4591 24.7262Z" fill="#333333"/>
<path d="M46.6304 17.7866H42.4636L38.6309 27.1709H41.8543L42.385 25.8105H46.709L47.2594 27.1709H50.4632L46.6304 17.7866ZM43.0925 23.7404L44.4488 19.9552H44.6649L46.0211 23.7404H43.0925Z" fill="#333333"/>
<path d="M54.1365 23.6814V27.1709H51.2866V17.7866H54.1365V21.217H58.7161V17.7866H61.5661V27.1709H58.7161V23.6814H54.1365Z" fill="#333333"/>
<path d="M66.0771 23.6223V27.1709H63.2271V17.7866H66.0771V21.3156H66.8633L70.3029 17.7866H73.88L69.3201 22.2816L74.0569 27.1709H70.2635L66.8633 23.6223H66.0771Z" fill="#333333"/>
<path d="M0 11.75H22.7209V23.2118C22.7209 26.1501 21.1581 28.8652 18.6214 30.3345L11.3604 34.5401L4.09951 30.3345C1.5627 28.8652 0 26.1501 0 23.2118V11.75Z" fill="#FFDD2D"/>
<path fill-rule="evenodd" clip-rule="evenodd" d="M6.23486 17.7866V21.3515C6.72086 20.801 7.60449 20.4284 8.6148 20.4284H9.71273V24.5725C9.71273 25.6751 9.41408 26.6401 8.97096 27.1709H13.7467C13.3045 26.6395 13.0066 25.6757 13.0066 24.5746V20.4284H14.1045C15.1149 20.4284 15.9985 20.801 16.4845 21.3515V17.7866H6.23486Z" fill="#333333"/>
</svg>
