<svg width="1600" height="165" viewBox="0 0 1600 165" fill="none" xmlns="http://www.w3.org/2000/svg">
<g clip-path="url(#clip0_5045_1844)">
<path fill-rule="evenodd" clip-rule="evenodd" d="M92.4579 51.9641C119.746 -1.76625 173.174 54.6105 118.715 79.2857C178.518 76.3095 156.808 150.702 108.149 115.676C141.125 166.316 65.9861 184.333 71.787 124.631C44.4994 178.362 -8.81586 122.447 45.53 97.3101C-14.6203 100.862 7.09015 26.469 56.0957 60.9196C22.7725 10.8542 98.2585 -7.73701 92.4579 51.9641ZM79.8453 80.0445C84.4485 78.9107 89.5004 81.5841 90.6375 86.2008C91.7745 90.8175 88.6557 95.993 84.0525 97.1267C79.4499 98.2603 74.7439 95.0119 73.6069 90.3952C72.4698 85.7785 75.2428 81.178 79.8453 80.0445Z" fill="white"/>
<circle cx="82.2012" cy="89.0565" r="12" transform="rotate(-13.8358 82.2012 89.0565)" fill="#FFCB44"/>
<path d="M80.0066 161.455C80.0066 161.455 82.4932 125.314 106.209 105.704C129.925 86.0933 165.89 90.4401 165.89 90.4401C165.89 90.4401 163.403 126.581 139.687 146.191C115.972 165.802 80.0066 161.455 80.0066 161.455Z" fill="#2CA758"/>
<path fill-rule="evenodd" clip-rule="evenodd" d="M829.776 47.6203C840.4 26.7013 861.201 48.6507 839.998 58.2576C863.282 57.0988 854.829 86.0623 835.885 72.4254C848.724 92.1415 819.469 99.1559 821.728 75.9121C811.104 96.8313 790.346 75.0619 811.505 65.2751C788.086 66.6578 796.539 37.6942 815.619 51.107C802.645 31.6149 832.034 24.3767 829.776 47.6203ZM824.865 58.553C826.657 58.1116 828.624 59.1524 829.067 60.9498C829.51 62.7473 828.295 64.7623 826.503 65.2037C824.711 65.645 822.879 64.3803 822.436 62.5829C821.994 60.7854 823.073 58.9943 824.865 58.553Z" fill="white"/>
<circle cx="825.783" cy="62.0618" r="4.672" transform="rotate(-13.8358 825.783 62.0618)" fill="#FFCB44"/>
<g filter="url(#filter0_f_5045_1844)">
<path d="M480 57L480.005 82.9744L489.95 58.9791L480.014 82.9784L498.385 64.6152L480.022 82.9855L504.021 73.0502L480.026 82.995L506 83L480.026 83.005L504.021 92.9498L480.022 83.0145L498.385 101.385L480.014 83.0216L489.95 107.021L480.005 83.0256L480 109L479.995 83.0256L470.05 107.021L479.986 83.0216L461.615 101.385L479.978 83.0145L455.979 92.9498L479.974 83.005L454 83L479.974 82.995L455.979 73.0502L479.978 82.9855L461.615 64.6152L479.986 82.9784L470.05 58.9791L479.995 82.9744L480 57Z" stroke="white"/>
</g>
<path fill-rule="evenodd" clip-rule="evenodd" d="M1538.82 -290.507C1585.98 -426.77 1656.58 -315.814 1573.56 -236.877C1661.48 -267.169 1619.7 -84.7774 1553.21 -147.679C1594.65 -42.1538 1482.27 29.2841 1498.79 -112.555C1451.63 23.7088 1381.13 -86.2113 1464.04 -166.184C1375.54 -134.411 1417.32 -316.804 1484.4 -255.383C1442.37 -359.428 1555.34 -432.345 1538.82 -290.507ZM1516.58 -219.938C1523.47 -224.384 1530.5 -220.105 1531.55 -209.756C1532.59 -199.406 1527.33 -186.089 1520.44 -181.643C1513.55 -177.197 1507.1 -182.955 1506.06 -193.305C1505.02 -203.654 1509.69 -215.492 1516.58 -219.938Z" fill="white"/>
<path d="M1432.01 151.283C1432.01 151.283 1436.46 86.6606 1478.86 51.5962C1521.27 16.5318 1585.58 24.3042 1585.58 24.3042C1585.58 24.3042 1581.13 88.9262 1538.72 123.991C1496.32 159.055 1432.01 151.283 1432.01 151.283Z" fill="#2CA758"/>
<path fill-rule="evenodd" clip-rule="evenodd" d="M1275 35C1274.98 28.3807 1269.61 23.0222 1263 23.0222C1269.63 23.0222 1275 17.6396 1275 11C1275.02 17.6193 1280.39 22.9778 1287 22.9778C1280.37 22.9778 1275 28.3604 1275 35Z" fill="white"/>
<path fill-rule="evenodd" clip-rule="evenodd" d="M956 44C955.976 37.3807 950.613 32.0222 944 32.0222C950.627 32.0222 956 26.6396 956 20C956.024 26.6193 961.387 31.9778 968 31.9778C961.372 31.9778 956 37.3604 956 44Z" fill="white"/>
<path fill-rule="evenodd" clip-rule="evenodd" d="M632 12C631.976 5.38073 626.613 0.0222384 620 0.0222384C626.627 0.0222384 632 -5.36037 632 -12C632.024 -5.38073 637.387 -0.0222378 644 -0.0222378C637.372 -0.0222378 632 5.36037 632 12Z" fill="white"/>
</g>
<defs>
<filter id="filter0_f_5045_1844" x="451.2" y="54.2" width="57.6" height="57.6" filterUnits="userSpaceOnUse" color-interpolation-filters="sRGB">
<feFlood flood-opacity="0" result="BackgroundImageFix"/>
<feBlend mode="normal" in="SourceGraphic" in2="BackgroundImageFix" result="shape"/>
<feGaussianBlur stdDeviation="1.4" result="effect1_foregroundBlur_5045_1844"/>
</filter>
<clipPath id="clip0_5045_1844">
<rect width="1600" height="165" fill="white"/>
</clipPath>
</defs>
</svg>
