<svg width="1440" height="80" viewBox="0 0 1440 80" fill="none" xmlns="http://www.w3.org/2000/svg">
<g clip-path="url(#clip0_9154_11408)">
<path fill-rule="evenodd" clip-rule="evenodd" d="M22.4579 11.9641C49.7456 -41.7663 103.174 14.6105 48.7145 39.2857C108.518 36.3094 86.8082 110.702 38.1492 75.6757C71.1255 126.316 -4.01387 144.333 1.78701 84.6313C-25.5006 138.362 -78.8159 82.4474 -24.47 57.3101C-84.6203 60.8617 -62.9098 -13.531 -13.9043 20.9196C-47.2275 -29.1458 28.2585 -47.737 22.4579 11.9641ZM9.84533 40.0445C14.4485 38.9108 19.5004 41.584 20.6375 46.2008C21.7745 50.8175 18.6557 55.993 14.0525 57.1267C9.44989 58.2603 4.74391 55.0119 3.60688 50.3952C2.46985 45.7785 5.24275 41.178 9.84533 40.0445Z" fill="white"/>
<circle cx="12.2017" cy="49.0556" r="12" transform="rotate(-13.8358 12.2017 49.0556)" fill="#FFCB44"/>
<path d="M10.0066 121.454C10.0066 121.454 12.4932 85.313 36.2091 65.7027C59.925 46.0924 95.8897 50.4391 95.8897 50.4391C95.8897 50.4391 93.4034 86.5801 69.6875 106.19C45.9715 125.801 10.0066 121.454 10.0066 121.454Z" fill="#2CA758"/>
<path fill-rule="evenodd" clip-rule="evenodd" d="M819.776 47.6223C830.4 26.7033 851.201 48.6526 829.998 58.2595C853.282 57.1008 844.829 86.0643 825.885 72.4274C838.724 92.1435 809.469 99.1579 811.728 75.9141C801.104 96.8333 780.346 75.0638 801.505 65.277C778.086 66.6598 786.539 37.6962 805.619 51.109C792.645 31.6168 822.034 24.3786 819.776 47.6223ZM814.865 58.5549C816.657 58.1135 818.624 59.1543 819.067 60.9518C819.51 62.7492 818.295 64.7643 816.503 65.2056C814.711 65.647 812.879 64.3822 812.436 62.5848C811.994 60.7874 813.073 58.9963 814.865 58.5549Z" fill="white"/>
<circle cx="815.783" cy="62.0637" r="4.672" transform="rotate(-13.8358 815.783 62.0637)" fill="#FFCB44"/>
<g filter="url(#filter0_f_9154_11408)">
<path d="M480 57L480.005 82.9744L489.95 58.9791L480.014 82.9784L498.385 64.6152L480.022 82.9855L504.021 73.0502L480.026 82.995L506 83L480.026 83.005L504.021 92.9498L480.022 83.0145L498.385 101.385L480.014 83.0216L489.95 107.021L480.005 83.0256L480 109L479.995 83.0256L470.05 107.021L479.986 83.0216L461.615 101.385L479.978 83.0145L455.979 92.9498L479.974 83.005L454 83L479.974 82.995L455.979 73.0502L479.978 82.9855L461.615 64.6152L479.986 82.9784L470.05 58.9791L479.995 82.9744L480 57Z" stroke="white"/>
</g>
<path fill-rule="evenodd" clip-rule="evenodd" d="M1379.67 -142.586C1413.37 -208.948 1479.36 -139.317 1412.1 -108.841C1485.96 -112.517 1459.14 -20.6341 1399.05 -63.8951C1439.78 -1.34872 1346.97 20.9036 1354.13 -52.8341C1320.43 13.5291 1254.58 -55.5314 1321.7 -86.5786C1247.41 -82.192 1274.23 -174.075 1334.75 -131.525C1293.6 -193.361 1386.83 -216.323 1379.67 -142.586ZM1364.09 -107.903C1369.77 -109.304 1376.01 -106.002 1377.42 -100.3C1378.82 -94.5977 1374.97 -88.2053 1369.28 -86.805C1363.6 -85.405 1357.79 -89.4172 1356.38 -95.1193C1354.98 -100.821 1358.4 -106.503 1364.09 -107.903Z" fill="white"/>
<path d="M1272.01 151.282C1272.01 151.282 1276.46 86.6596 1318.86 51.5952C1361.27 16.5309 1425.57 24.3032 1425.57 24.3032C1425.57 24.3032 1421.13 88.9253 1378.72 123.99C1336.32 159.054 1272.01 151.282 1272.01 151.282Z" fill="#2CA758"/>
<path fill-rule="evenodd" clip-rule="evenodd" d="M1275 15C1274.98 8.38073 1269.61 3.02224 1263 3.02224C1269.63 3.02224 1275 -2.36037 1275 -9C1275.02 -2.38073 1280.39 2.97776 1287 2.97776C1280.37 2.97776 1275 8.36037 1275 15Z" fill="white"/>
<path fill-rule="evenodd" clip-rule="evenodd" d="M916 24C915.976 17.3807 910.613 12.0222 904 12.0222C910.627 12.0222 916 6.63963 916 0C916.024 6.61927 921.387 11.9778 928 11.9778C921.372 11.9778 916 17.3604 916 24Z" fill="white"/>
<path fill-rule="evenodd" clip-rule="evenodd" d="M632 12C631.976 5.38073 626.613 0.0222387 620 0.0222387C626.627 0.0222387 632 -5.36037 632 -12C632.024 -5.38073 637.387 -0.0222378 644 -0.0222378C637.372 -0.0222378 632 5.36037 632 12Z" fill="white"/>
</g>
<defs>
<filter id="filter0_f_9154_11408" x="451.2" y="54.2" width="57.6" height="57.6" filterUnits="userSpaceOnUse" color-interpolation-filters="sRGB">
<feFlood flood-opacity="0" result="BackgroundImageFix"/>
<feBlend mode="normal" in="SourceGraphic" in2="BackgroundImageFix" result="shape"/>
<feGaussianBlur stdDeviation="1.4" result="effect1_foregroundBlur_9154_11408"/>
</filter>
<clipPath id="clip0_9154_11408">
<rect width="1440" height="80" fill="white"/>
</clipPath>
</defs>
</svg>
