<svg width="195" height="41" viewBox="0 0 195 41" fill="none" xmlns="http://www.w3.org/2000/svg">
<g clip-path="url(#clip0_9560_3036)">
<path d="M81.8873 9.09863C78.4014 9.09863 74.4369 10.7146 72.0146 13.9498L72.0162 13.9432L72.0146 13.9448L72.0162 9.60669H63.7021V39.8836H72.0146V22.6555C72.0146 19.5548 74.4189 16.259 78.8701 16.259C82.3101 16.259 85.8698 18.6517 85.8698 22.6555V39.8836H94.1839V21.115C94.1839 14.1513 89.2017 9.09863 81.8873 9.09863Z" fill="#E60012"/>
<path d="M153.274 9.60791L145.758 30.2317L138.242 9.60791H128.745L141.202 39.875H150.312L162.77 9.60791H153.274Z" fill="#E60012"/>
<path d="M38.8816 18.7289C40.2976 16.8278 42.5527 15.7117 45.2765 15.7117C48.2724 15.7117 50.5456 17.4227 51.7206 19.9483L37.1951 25.9745C36.7985 22.8819 37.5901 20.4629 38.8816 18.7289ZM54.8542 30.5748C51.3552 33.1643 49.3557 33.7822 46.1648 33.7822C43.2935 33.7822 41.0449 32.8906 39.4601 31.3271L60.7149 22.5099C60.2511 19.2239 59.0039 16.2886 57.0847 14.0565C54.2921 10.8131 50.1588 9.09717 45.1257 9.09717C35.984 9.09717 29.0908 15.8412 29.0908 24.7486C29.0908 33.887 36.0004 40.3984 46.0419 40.3984C51.6682 40.3984 57.4207 37.7319 60.1118 34.6164L54.8542 30.5748Z" fill="#E60012"/>
<path d="M28.2987 32.2496H9.40228V0.551758H0.975098V39.8835H28.2987V32.2496Z" fill="#E60012"/>
<path d="M177.698 16.2214C173.055 16.2214 169.684 19.7401 169.684 24.7453C169.684 29.5243 173.255 33.2692 177.81 33.2692C182.454 33.2692 185.824 29.6538 185.824 24.7453C185.824 19.9663 182.254 16.2214 177.698 16.2214ZM177.698 40.3935C168.606 40.3935 161.481 33.6199 161.481 24.7453C161.481 15.9707 168.655 9.09717 177.81 9.09717C186.902 9.09717 194.025 15.8707 194.025 24.7453C194.025 33.5183 186.853 40.3935 177.698 40.3935Z" fill="#E60012"/>
<path d="M113.688 16.2214C109.045 16.2214 105.676 19.7401 105.676 24.7453C105.676 29.5243 109.245 33.2692 113.801 33.2692C118.444 33.2692 121.814 29.6538 121.814 24.7453C121.814 19.9663 118.244 16.2214 113.688 16.2214ZM113.688 40.3935C104.596 40.3935 97.4731 33.6199 97.4731 24.7453C97.4731 15.9707 104.645 9.09717 113.801 9.09717C122.892 9.09717 130.017 15.8707 130.017 24.7453C130.017 33.5183 122.843 40.3935 113.688 40.3935Z" fill="#E60012"/>
</g>
<defs>
<clipPath id="clip0_9560_3036">
<rect width="195" height="40.95" fill="white"/>
</clipPath>
</defs>
</svg>
