<svg width="138" height="49" viewBox="0 0 138 49" fill="none" xmlns="http://www.w3.org/2000/svg">
<g clip-path="url(#clip0_9555_396)">
<path fill-rule="evenodd" clip-rule="evenodd" d="M9.37598 0L7.03052 6.35977H39.5333L41.8788 0H9.37598ZM5.85706 9.53821L3.5116 15.8965H36.0144L38.3599 9.53821H5.85706ZM2.34546 19.0764L0 25.4347H32.5028L34.8468 19.0764H2.34546Z" fill="#009FDF"/>
<mask id="mask0_9555_396" style="mask-type:alpha" maskUnits="userSpaceOnUse" x="48" y="9" width="90" height="40">
<path d="M48.7646 48.6182H137.737V9.66064H48.7646V48.6182Z" fill="white"/>
</mask>
<g mask="url(#mask0_9555_396)">
<path fill-rule="evenodd" clip-rule="evenodd" d="M69.099 27.8585V27.9927C70.5844 28.5324 72.0033 29.4761 72.7467 30.0821C75.0435 31.9696 76.0574 34.4631 76.0574 37.6984C76.0574 43.0245 73.2197 46.8658 68.558 48.0794C67.1392 48.4834 65.6538 48.6191 62.8825 48.6191H48.7646V9.66064H61.2626C63.8299 9.66064 65.5858 9.79483 67.1392 10.1989C71.6663 11.4124 74.6385 14.5135 74.6385 19.4327C74.6385 22.0619 73.6926 24.287 72.1392 25.769C71.4638 26.4429 70.5179 27.2524 69.099 27.8585ZM56.601 31.9696V42.215H62.0061C63.6259 42.215 65.1128 42.0808 66.1947 41.0692C67.2751 40.0577 67.7481 38.7777 67.7481 37.0923C67.7481 35.8124 67.4096 34.5988 66.7342 33.7229C65.5858 32.3073 64.1669 31.9696 61.7356 31.9696H56.601ZM56.533 25.2293H60.9242C62.2751 25.2293 62.9505 25.2293 63.626 25.0273C65.4513 24.4876 66.5997 22.8714 66.5997 20.6463C66.5997 18.0186 65.3833 16.8714 63.626 16.3331C62.8825 16.1311 62.1406 16.0633 60.6537 16.0633H56.533V25.2293ZM87.812 48.6191V16.1975H76.5304V9.66064H107.877L105.648 16.1975H95.6483V48.6191H87.812ZM110.309 48.6191V9.66064H135.711L133.482 16.1975H118.078V24.8252H124.361C129.428 24.8252 132.063 26.0388 133.887 27.5886C135.306 28.8022 137.737 31.4977 137.737 36.8239C137.737 42.0808 135.238 44.9784 133.144 46.4618C130.712 48.1458 128.145 48.6191 122.943 48.6191H110.309ZM118.078 42.0808H123.956C126.185 42.0808 127.536 41.5411 128.482 40.3275C128.955 39.7215 129.631 38.6421 129.631 36.6204C129.631 34.5988 128.955 33.1832 127.604 32.1716C126.794 31.5656 125.712 31.2294 123.888 31.2294H118.078V42.0808Z" fill="#0A2973"/>
</g>
</g>
<defs>
<clipPath id="clip0_9555_396">
<rect width="138" height="49" fill="white"/>
</clipPath>
</defs>
</svg>
