<svg width="138" height="62" viewBox="0 0 138 62" fill="none" xmlns="http://www.w3.org/2000/svg">
<g clip-path="url(#clip0_9555_250)">
<path d="M97.6688 5.87893V8.10928H116.814C118.087 8.10928 120.006 8.10928 121.284 9.38238C122.562 10.6603 122.562 12.5748 122.562 13.8528V32.9979C122.562 34.2758 122.562 36.1903 121.284 37.4634C120.006 38.7414 118.087 38.7414 116.814 38.7414H107.582C105.988 38.7414 103.908 38.7414 103.111 36.9872C102.319 35.2282 103.429 33.6344 104.394 32.3613L116.833 15.7916H97.6883L90.0108 25.9958C88.728 27.7063 87.6201 29.1883 87.6201 31.0979C87.6201 33.0125 88.6503 34.3925 90.0108 36.2001L91.9253 38.7511C93.8398 41.3022 95.7543 43.8532 98.2908 45.1166C100.847 46.3848 103.879 46.3848 108.009 46.3848H116.318C121.109 46.3848 128.272 46.3848 133.082 41.6034C137.864 36.8172 137.864 29.7957 137.864 27.2689V19.5915C137.864 17.0356 137.864 10.0189 133.082 5.25696C128.291 0.465833 121.129 0.48041 116.318 0.47555L103.101 0.468262C101.833 0.468262 100.23 0.468262 98.9517 1.74622C97.6834 3.02418 97.6834 4.61798 97.6834 5.89594" fill="#DA4216"/>
<path d="M74.8308 15.7432H93.7815L70.9435 46.3558H51.5068L74.8308 15.7432Z" fill="#DA4216"/>
<path d="M-6.34119e-05 21.1855C-6.34119e-05 19.9124 -6.33523e-05 18.3138 1.27789 17.0358C2.55099 15.7627 4.15451 15.7627 5.42761 15.7627H37.498C41.6429 15.7627 44.6896 15.7627 47.2163 17.0358C49.7625 18.3186 51.677 20.8697 53.5818 23.4013L55.5012 25.9523C56.8666 27.7648 57.9016 29.1448 57.9016 31.0545C57.9016 32.969 56.784 34.451 55.5012 36.1566L47.8237 46.3608H28.6787L41.1181 29.7911C42.0754 28.5131 43.1978 26.9242 42.3961 25.1652C41.604 23.4159 39.5292 23.4159 37.9354 23.4159H22.9206V61.706H7.61423V23.4159H-0.0632324V21.1807" fill="#DA4216"/>
</g>
<defs>
<clipPath id="clip0_9555_250">
<rect width="138" height="61.2254" fill="white" transform="translate(0 0.436523)"/>
</clipPath>
</defs>
</svg>
