<svg width="177" height="91" viewBox="0 0 177 91" fill="none" xmlns="http://www.w3.org/2000/svg">
<g clip-path="url(#clip0_9555_453)">
<path fill-rule="evenodd" clip-rule="evenodd" d="M67.4701 67.9742V66.4101H63.4848V67.9742H63.0193V64.6187H63.4848V66.0736H67.4701V64.6187H67.9301V67.9742H67.4701Z" fill="#201C26"/>
<path fill-rule="evenodd" clip-rule="evenodd" d="M69.4976 67.9742V64.6187H73.4672V64.9533H69.9558V66.0736H73.3744V66.4055H69.9558V67.6377H73.4672V67.9742H69.4976Z" fill="#201C26"/>
<path fill-rule="evenodd" clip-rule="evenodd" d="M81.5229 66.4943V66.0763C81.5229 65.2786 81.1263 64.8771 79.8692 64.8771H78.501V64.5791H78.0345V64.8771H76.6828C75.4174 64.8771 75.0208 65.2117 75.0208 66.0763V66.4943C75.0208 67.3479 75.4689 67.6431 76.6828 67.6431H78.0345V67.9732H78.501V67.6431H79.8692C81.0758 67.6431 81.5229 67.3635 81.5229 66.4943ZM81.0556 66.4943C81.0556 67.1407 80.7424 67.3112 79.8692 67.3112H78.501V65.2126H79.8692C80.6983 65.2126 81.0556 65.407 81.0556 66.0579V66.4943ZM78.0345 67.3112H76.6828C75.8086 67.3112 75.4753 67.1407 75.4753 66.4898V66.0433C75.4753 65.4015 75.8408 65.2126 76.6828 65.2126H78.0345V67.3112Z" fill="#201C26"/>
<path fill-rule="evenodd" clip-rule="evenodd" d="M85.0694 64.9533V67.9742H85.5331V64.9533H87.725V64.6187H82.894V64.9533H85.0694Z" fill="#201C26"/>
<path fill-rule="evenodd" clip-rule="evenodd" d="M93.5753 67.9743V64.6196H90.5542C89.4385 64.6196 88.9785 64.8956 88.9785 65.6584C88.9785 66.2892 89.4385 66.5835 90.3182 66.5835L88.793 67.9752H89.4385L90.8737 66.5835H93.1079V67.9752H93.5753V67.9743ZM93.1079 66.2516H90.4082C89.6901 66.2516 89.4394 66.1581 89.4394 65.6584C89.4394 65.1376 89.702 64.9534 90.3623 64.9534H93.1079V66.2516Z" fill="#201C26"/>
<path fill-rule="evenodd" clip-rule="evenodd" d="M99.7128 67.9742V66.4101H95.7303V67.9742H95.2666V64.6187H95.7303V66.0736H99.7128V64.6187H100.178V67.9742H99.7128Z" fill="#201C26"/>
<path fill-rule="evenodd" clip-rule="evenodd" d="M106.768 67.9743L104.445 64.6196H103.731L101.41 67.9743H101.922L102.499 67.1326H105.652L106.223 67.9743H106.768ZM105.41 66.7897H102.751L104.077 64.8598L105.41 66.7897Z" fill="#201C26"/>
<path fill-rule="evenodd" clip-rule="evenodd" d="M112.065 67.9742V66.5825H109.832L108.39 67.9742H107.753L109.267 66.5825C108.39 66.5825 107.935 66.2882 107.935 65.6574C107.935 64.8946 108.39 64.6187 109.505 64.6187H112.533V67.9733H112.065V67.9742ZM112.065 64.9533H109.321C108.662 64.9533 108.39 65.1367 108.39 65.6583C108.39 66.1589 108.643 66.2515 109.365 66.2515H112.065V64.9533Z" fill="#201C26"/>
<path fill-rule="evenodd" clip-rule="evenodd" d="M121.137 67.9742H121.951L118.708 66.2158L121.879 64.6187H121.057L118.226 66.0581H117.473V64.6187H117.007V67.9742H117.473V66.3954H118.245L121.137 67.9742Z" fill="#201C26"/>
<path fill-rule="evenodd" clip-rule="evenodd" d="M127.986 66.8235C127.986 67.4799 127.767 67.6385 126.824 67.6385H124.862C123.989 67.6385 123.663 67.4698 123.663 66.8235V65.7526C123.663 65.0999 124.02 64.9229 124.862 64.9229H126.824C127.719 64.9229 127.986 65.0889 127.986 65.7526V66.8235ZM128.446 66.8235V65.7737C128.446 64.7982 127.912 64.5791 126.824 64.5791H124.867C123.593 64.5791 123.197 64.922 123.197 65.7737V66.8235C123.197 67.6853 123.649 67.9741 124.867 67.9741H126.824C128.016 67.9741 128.446 67.7788 128.446 66.8235Z" fill="#201C26"/>
<path fill-rule="evenodd" clip-rule="evenodd" d="M135.499 64.6187H136.497V67.9742H136.032V64.8909H135.774L133.353 67.9742H133.116L130.699 64.8909H130.437V67.9742H129.975V64.6187H130.967L133.24 67.48L135.499 64.6187Z" fill="#201C26"/>
<path fill-rule="evenodd" clip-rule="evenodd" d="M138.63 67.9742V64.9533H142.603V67.9742H143.072V64.6187H138.159V67.9742H138.63Z" fill="#201C26"/>
<path fill-rule="evenodd" clip-rule="evenodd" d="M149.119 67.9743L148.549 67.1326H145.395L144.81 67.9743H144.298L146.625 64.6196H147.33L149.653 67.9743H149.119ZM146.977 64.8589L145.642 66.7888H148.305L146.977 64.8589Z" fill="#201C26"/>
<path fill-rule="evenodd" clip-rule="evenodd" d="M155.894 67.9742V64.6187H155.432V66.0736H151.455V64.6187H150.984V67.9742H151.455V66.4101H155.432V67.9742H155.894Z" fill="#201C26"/>
<path fill-rule="evenodd" clip-rule="evenodd" d="M162.401 67.9742V64.6187H161.495L157.951 67.7129H157.91V64.6187H157.452V67.9742H158.206L161.76 64.8781H161.931V67.9742H162.401Z" fill="#201C26"/>
<path fill-rule="evenodd" clip-rule="evenodd" d="M168.009 66.2516H165.303C164.582 66.2516 164.339 66.1581 164.339 65.6584C164.339 65.1376 164.594 64.9534 165.253 64.9534H168.009V66.2516ZM168.466 67.9743V64.6196H165.447C164.339 64.6196 163.874 64.8956 163.874 65.6584C163.874 66.2892 164.339 66.5835 165.216 66.5835L163.685 67.9752H164.339L165.767 66.5835H168.009V67.9752H168.466V67.9743Z" fill="#201C26"/>
<path fill-rule="evenodd" clip-rule="evenodd" d="M62.9789 72.9448C62.9789 72.9448 73.0761 72.8091 73.8851 73.3501C74.6931 73.8837 75.5003 74.4282 75.6353 75.4982C75.7693 76.5745 75.0972 79.9301 72.538 80.0667C69.9825 80.2006 67.0247 79.9301 67.0247 79.9301L66.8925 82.6191L62.854 82.4853L62.9789 72.9448Z" fill="#201C26"/>
<path fill-rule="evenodd" clip-rule="evenodd" d="M67.1551 75.6306L67.0247 77.2461C67.0247 77.2461 70.2514 77.9153 70.9236 77.2461C71.5967 76.5759 71.0567 75.4995 69.9833 75.4995C68.9089 75.4995 67.1551 75.6306 67.1551 75.6306Z" fill="white"/>
<path fill-rule="evenodd" clip-rule="evenodd" d="M75.636 75.4993C76.7177 74.2918 78.6001 72.4087 82.8994 72.6755C87.207 72.9459 89.4999 74.6879 89.4999 76.715C89.4999 78.7237 89.6275 81.41 87.0711 82.2122C84.5174 83.0227 81.9564 83.0227 80.2089 82.7587C78.4587 82.4864 75.636 80.8709 75.2338 78.7246C74.8288 76.5747 75.636 75.4993 75.636 75.4993Z" fill="#241C24"/>
<path fill-rule="evenodd" clip-rule="evenodd" d="M79.6755 78.0499C79.4294 76.3144 80.8821 75.2271 82.0932 75.2271C83.3026 75.2271 85.3163 75.3637 85.1832 77.6493C85.0519 79.9313 84.9224 79.7965 83.7121 80.2017C82.5 80.6042 80.0768 81.0113 79.6755 78.0499Z" fill="white"/>
<path fill-rule="evenodd" clip-rule="evenodd" d="M103.889 76.7152C103.22 75.4994 101.744 73.2111 99.4511 73.0818C97.1646 72.9461 94.0673 72.6756 92.5889 73.2111C91.105 73.7538 89.9039 75.0924 89.6312 76.3017C89.364 77.5146 89.0867 80.2018 90.8406 81.4102C92.588 82.6195 95.4208 83.5629 98.1077 83.0229C100.794 82.4865 103.353 81.4102 103.757 79.1255H99.1848C99.1848 79.1255 97.9681 80.74 96.4934 80.6043C96.4934 80.6043 95.1389 81.0114 94.2005 79.6701C93.2638 78.3196 93.3952 77.1121 94.3345 75.901C95.2849 74.6881 97.8359 75.0915 98.1067 75.6305C98.374 76.1696 98.778 76.9737 98.778 76.9737L103.889 76.7152Z" fill="#241C24"/>
<path fill-rule="evenodd" clip-rule="evenodd" d="M103.49 73.2107H107.663V76.4397H111.827V72.9448H116.138V82.6191H112.097V79.3947H107.798V82.6191H103.354L103.49 73.2107Z" fill="#241C24"/>
<path fill-rule="evenodd" clip-rule="evenodd" d="M117.488 72.9448L129.463 73.0814V75.4991H122.198V76.4397H128.254V79.1251H121.926V80.3399H129.73V82.8887H117.62L117.488 72.9448Z" fill="#241C24"/>
<path fill-rule="evenodd" clip-rule="evenodd" d="M135.651 72.9448H139.823C139.823 72.9448 139.557 73.6187 140.101 73.4857C140.631 73.351 144.264 73.2098 145.345 74.5603C146.418 75.9007 146.825 77.6481 145.744 78.8583C144.664 80.0685 143.723 80.6039 143.058 80.6039C142.378 80.6039 140.101 80.7387 140.101 80.7387V82.8887H135.651V80.6039C135.651 80.6039 132.824 80.4692 131.882 80.2015C130.945 79.931 129.191 78.8583 129.191 77.1127C129.191 75.3643 130.133 73.8846 131.484 73.7535C132.824 73.6196 135.382 73.6196 135.382 73.6196L135.651 72.9448Z" fill="#241C24"/>
<path fill-rule="evenodd" clip-rule="evenodd" d="M135.651 75.9007L135.517 77.9149C135.517 77.9149 133.365 78.1854 133.365 77.3841C133.365 76.5745 133.771 75.7677 135.651 75.9007Z" fill="white"/>
<path fill-rule="evenodd" clip-rule="evenodd" d="M140.1 76.0345L140.227 77.9159C140.227 77.9159 141.439 78.4559 142.116 77.5143C142.781 76.5745 141.571 75.9007 140.1 76.0345Z" fill="white"/>
<path fill-rule="evenodd" clip-rule="evenodd" d="M148.568 75.9008V83.0226H152.873V75.9008H156.773L157.587 74.829L156.377 73.3511H145.073C145.076 73.3511 144.532 75.4992 145.742 75.6303C146.953 75.7678 148.568 75.9008 148.568 75.9008Z" fill="#241C24"/>
<path fill-rule="evenodd" clip-rule="evenodd" d="M161.081 73.3511V76.0346C161.081 76.0346 166.199 75.7678 167.142 76.3014C168.084 76.8405 169.025 77.6491 169.159 78.5843C169.293 79.5305 169.025 81.0111 168.084 81.8133C167.142 82.6192 166.069 83.1556 164.984 83.1556H157.186V73.4858L161.081 73.3511Z" fill="#241C24"/>
<path fill-rule="evenodd" clip-rule="evenodd" d="M161.491 78.8585V80.4693H164.178C164.848 80.4693 165.794 78.9923 164.58 78.7246C163.372 78.4551 161.491 78.8585 161.491 78.8585Z" fill="white"/>
<path fill-rule="evenodd" clip-rule="evenodd" d="M7.80884 28.6074H14.6747V51.8534L7.80884 45.8042V28.6074Z" fill="#241C24"/>
<path fill-rule="evenodd" clip-rule="evenodd" d="M16.0217 20.9502H22.6148V59.3788L16.0217 53.0554V20.9502Z" fill="#241C24"/>
<path fill-rule="evenodd" clip-rule="evenodd" d="M23.9629 13.293H30.6919V49.7018H23.9629V13.293Z" fill="#241C24"/>
<path fill-rule="evenodd" clip-rule="evenodd" d="M32.0325 5.63477H39.0305V42.1783H32.0325V5.63477Z" fill="#241C24"/>
<path fill-rule="evenodd" clip-rule="evenodd" d="M39.9727 12.8857H46.7035V49.7016H39.9727V12.8857Z" fill="#241C24"/>
<path fill-rule="evenodd" clip-rule="evenodd" d="M48.3188 20.8091H54.9119V52.9226L48.3188 59.3788V20.8091Z" fill="#241C24"/>
<path fill-rule="evenodd" clip-rule="evenodd" d="M56.1194 28.4717H62.8539V45.2688L56.1194 51.8534V28.4717Z" fill="#241C24"/>
<path fill-rule="evenodd" clip-rule="evenodd" d="M23.9629 50.5142H30.6919V84.2266H23.9629V50.5142Z" fill="#B3B31C"/>
<path fill-rule="evenodd" clip-rule="evenodd" d="M32.0325 43.2583H38.6237V84.2265H32.0325V43.2583Z" fill="#B3B31C"/>
<path fill-rule="evenodd" clip-rule="evenodd" d="M39.9727 50.6426H46.7035V84.2267H39.9727V50.6426Z" fill="#B3B31C"/>
</g>
<defs>
<clipPath id="clip0_9555_453">
<rect width="177" height="91" fill="white"/>
</clipPath>
</defs>
</svg>
