<svg width="297" height="38" viewBox="0 0 297 38" fill="none" xmlns="http://www.w3.org/2000/svg">
<path d="M152.786 37.8436C148.985 37.8436 145.648 37.0631 142.776 35.5022C139.932 33.9412 137.713 31.775 136.117 29.0036C134.521 26.2003 133.723 22.9351 133.723 19.2079C133.723 15.4808 134.521 12.2315 136.117 9.46004C137.713 6.65673 139.932 4.4746 142.776 2.91367C145.648 1.35273 148.985 0.572266 152.786 0.572266C156.587 0.572266 159.909 1.35273 162.753 2.91367C165.625 4.4746 167.859 6.65673 169.455 9.46004C171.051 12.2315 171.849 15.4808 171.849 19.2079C171.849 22.9351 171.051 26.2003 169.455 29.0036C167.859 31.775 165.625 33.9412 162.753 35.5022C159.909 37.0631 156.587 37.8436 152.786 37.8436ZM152.786 30.6282C155.165 30.6282 157.211 30.1663 158.923 29.2425C160.664 28.3187 161.998 26.9967 162.927 25.2765C163.884 23.5562 164.363 21.5334 164.363 19.2079C164.363 16.8825 163.884 14.8596 162.927 13.1394C161.998 11.4192 160.664 10.0972 158.923 9.17334C157.211 8.24952 155.165 7.78761 152.786 7.78761C150.436 7.78761 148.39 8.24952 146.649 9.17334C144.908 10.0972 143.559 11.4192 142.602 13.1394C141.673 14.8596 141.209 16.8825 141.209 19.2079C141.209 21.5334 141.673 23.5562 142.602 25.2765C143.559 26.9967 144.908 28.3187 146.649 29.2425C148.39 30.1663 150.436 30.6282 152.786 30.6282Z" fill="#1A1A1A"/>
<path d="M128.634 1.28902V37.1268H121.279V4.77723L124.63 8.45658H99.3436L102.695 4.77723V37.1268H95.296V1.28902H128.634Z" fill="#1A1A1A"/>
<path d="M53.3461 37.1268V1.28902H60.5708V33.0174L58.3511 32.5396L78.9808 1.28902H88.5993V37.1268H81.3746V4.96837L83.5942 5.44621L62.7034 37.1268H53.3461Z" fill="#1A1A1A"/>
<path d="M46.6847 1.28902V37.1268H39.6341V4.01269L41.5055 4.15604L27.5783 37.1268H19.9619L6.03465 4.25161L7.8626 4.06048V37.1268H0.855469V1.28902H12.2149L25.3587 33.2086H22.1815L35.3253 1.28902H46.6847Z" fill="#1A1A1A"/>
<path d="M252.28 32.2868H253.241V30.5133H252.28C251.968 30.5133 251.719 30.5966 251.535 30.7631C251.353 30.9263 251.263 31.1495 251.263 31.4326C251.263 31.6857 251.355 31.8922 251.54 32.052C251.728 32.2086 251.974 32.2868 252.28 32.2868ZM253.241 34.9196V33.1161H252.436L251.152 34.9196H249.924L251.369 32.9313C250.999 32.8214 250.709 32.6365 250.498 32.3768C250.286 32.1137 250.181 31.8006 250.181 31.4376C250.181 30.8914 250.365 30.4601 250.734 30.1437C251.107 29.8239 251.603 29.6641 252.224 29.6641H254.308V34.9196H253.241Z" fill="#1A1A1A"/>
<path d="M245.545 34.9196H244.473V29.6641H245.545V33.3459H245.585L248.032 29.6641H249.104V34.9196H248.032V31.2277H247.991L245.545 34.9196Z" fill="#1A1A1A"/>
<path d="M242.213 34.9196V32.6316H239.817V34.9196H238.734V29.6641H239.817V31.7823H242.213V29.6641H243.295V34.9196H242.213Z" fill="#1A1A1A"/>
<path d="M235.156 34.1545C235.538 34.1545 235.859 34.0396 236.117 33.8098C236.379 33.5766 236.51 33.2902 236.51 32.9505V32.5358L235.206 32.6158C234.88 32.6391 234.629 32.719 234.451 32.8556C234.276 32.9888 234.189 33.1686 234.189 33.3951C234.189 33.6249 234.276 33.8098 234.451 33.9497C234.629 34.0862 234.864 34.1545 235.156 34.1545ZM234.854 35.0088C234.333 35.0088 233.909 34.8622 233.58 34.5691C233.255 34.276 233.092 33.8947 233.092 33.4251C233.092 32.9655 233.263 32.6008 233.605 32.331C233.948 32.0579 234.432 31.9047 235.06 31.8714L236.51 31.7865V31.3818C236.51 31.0887 236.416 30.8606 236.228 30.6974C236.04 30.5309 235.78 30.4476 235.448 30.4476C235.139 30.4476 234.887 30.5159 234.693 30.6524C234.501 30.789 234.38 30.9772 234.33 31.217H233.303C233.333 30.7307 233.545 30.3344 233.937 30.028C234.33 29.7216 234.847 29.5684 235.488 29.5684C236.129 29.5684 236.639 29.7249 237.018 30.038C237.401 30.351 237.592 30.7707 237.592 31.2969V34.9188H236.55V34.0546H236.525C236.374 34.3443 236.144 34.5758 235.835 34.749C235.53 34.9222 235.203 35.0088 234.854 35.0088Z" fill="#1A1A1A"/>
<path d="M230.216 30.4484H229.103V31.8272H230.11C230.724 31.8272 231.031 31.5941 231.031 31.1278C231.031 30.9113 230.961 30.7448 230.82 30.6282C230.679 30.5083 230.478 30.4484 230.216 30.4484ZM230.181 32.5816H229.103V34.1353H230.301C230.61 34.1353 230.845 34.0703 231.006 33.9404C231.167 33.8072 231.248 33.6141 231.248 33.3609C231.248 32.8414 230.892 32.5816 230.181 32.5816ZM228.031 34.9196V29.6641H230.437C230.954 29.6641 231.359 29.784 231.651 30.0238C231.946 30.2602 232.093 30.5866 232.093 31.0029C232.093 31.276 232.006 31.5225 231.832 31.7423C231.661 31.9588 231.447 32.0903 231.192 32.137V32.1769C231.535 32.2236 231.81 32.3584 232.018 32.5816C232.226 32.8014 232.33 33.0762 232.33 33.4059C232.33 33.8688 232.162 34.2369 231.827 34.51C231.494 34.7831 231.041 34.9196 230.468 34.9196H228.031Z" fill="#1A1A1A"/>
<path d="M226.411 34.2894C225.955 34.7756 225.346 35.0187 224.584 35.0187C223.822 35.0187 223.213 34.7756 222.757 34.2894C222.3 33.7998 222.072 33.1337 222.072 32.2911C222.072 31.4518 222.3 30.789 222.757 30.3027C223.213 29.8132 223.822 29.5684 224.584 29.5684C225.346 29.5684 225.955 29.8132 226.411 30.3027C226.868 30.789 227.096 31.4518 227.096 32.2911C227.096 33.1337 226.868 33.7998 226.411 34.2894ZM224.584 34.1295C225.017 34.1295 225.359 33.968 225.611 33.6449C225.863 33.3218 225.989 32.8706 225.989 32.2911C225.989 31.7149 225.861 31.2653 225.606 30.9422C225.354 30.6191 225.014 30.4576 224.584 30.4576C224.155 30.4576 223.812 30.6191 223.557 30.9422C223.306 31.2653 223.18 31.7149 223.18 32.2911C223.18 32.8706 223.306 33.3218 223.557 33.6449C223.812 33.968 224.155 34.1295 224.584 34.1295Z" fill="#1A1A1A"/>
<path d="M219.183 35.0187C218.562 35.0187 218.052 34.8772 217.653 34.5941C217.257 34.311 217.035 33.928 216.988 33.4451H218.06C218.114 33.6716 218.238 33.8464 218.433 33.9696C218.628 34.0895 218.878 34.1495 219.183 34.1495C219.525 34.1495 219.79 34.0779 219.978 33.9347C220.17 33.7915 220.265 33.6016 220.265 33.3651C220.265 32.8556 219.906 32.6008 219.188 32.6008H218.413V31.8065H219.173C219.79 31.8065 220.099 31.5767 220.099 31.117C220.099 30.9072 220.022 30.7407 219.868 30.6175C219.713 30.4909 219.487 30.4276 219.188 30.4276C218.896 30.4276 218.658 30.4859 218.473 30.6025C218.289 30.7191 218.178 30.8806 218.141 31.0871H217.099C217.156 30.6175 217.369 30.2478 217.738 29.978C218.111 29.7049 218.592 29.5684 219.183 29.5684C219.814 29.5684 220.3 29.6982 220.643 29.958C220.988 30.2145 221.161 30.5658 221.161 31.0121C221.161 31.2819 221.084 31.52 220.93 31.7265C220.775 31.933 220.571 32.0679 220.316 32.1312V32.1712C220.651 32.2478 220.906 32.3893 221.081 32.5958C221.259 32.8023 221.348 33.0571 221.348 33.3602C221.348 33.8597 221.15 34.2611 220.754 34.5641C220.361 34.8672 219.837 35.0187 219.183 35.0187Z" fill="#1A1A1A"/>
<path d="M213.701 34.1545C214.083 34.1545 214.404 34.0396 214.662 33.8098C214.924 33.5766 215.055 33.2902 215.055 32.9505V32.5358L213.751 32.6158C213.425 32.6391 213.174 32.719 212.996 32.8556C212.821 32.9888 212.734 33.1686 212.734 33.3951C212.734 33.6249 212.821 33.8098 212.996 33.9497C213.174 34.0862 213.409 34.1545 213.701 34.1545ZM213.399 35.0088C212.878 35.0088 212.454 34.8622 212.125 34.5691C211.799 34.276 211.637 33.8947 211.637 33.4251C211.637 32.9655 211.808 32.6008 212.15 32.331C212.492 32.0579 212.977 31.9047 213.605 31.8714L215.055 31.7865V31.3818C215.055 31.0887 214.961 30.8606 214.773 30.6974C214.585 30.5309 214.325 30.4476 213.993 30.4476C213.684 30.4476 213.432 30.5159 213.237 30.6524C213.046 30.789 212.925 30.9772 212.875 31.217H211.848C211.878 30.7307 212.09 30.3344 212.482 30.028C212.875 29.7216 213.392 29.5684 214.033 29.5684C214.674 29.5684 215.184 29.7249 215.563 30.038C215.946 30.351 216.137 30.7707 216.137 31.2969V34.9188H215.095V34.0546H215.07C214.919 34.3443 214.689 34.5758 214.38 34.749C214.075 34.9222 213.748 35.0088 213.399 35.0088Z" fill="#1A1A1A"/>
<path d="M208.676 29.5801C209.351 29.5801 209.891 29.8249 210.297 30.3145C210.703 30.804 210.906 31.4635 210.906 32.2928C210.906 33.1221 210.705 33.7832 210.302 34.2761C209.9 34.7657 209.364 35.0105 208.697 35.0105C208.321 35.0105 207.987 34.9256 207.695 34.7557C207.406 34.5858 207.185 34.3527 207.03 34.0563H207.005V36.6591H205.918V29.665H206.97V30.5692H206.99C207.148 30.2628 207.374 30.0214 207.67 29.8449C207.965 29.6683 208.301 29.5801 208.676 29.5801ZM208.39 34.0963C208.819 34.0963 209.16 33.9347 209.411 33.6117C209.663 33.2853 209.789 32.8456 209.789 32.2928C209.789 31.7432 209.663 31.3053 209.411 30.9789C209.16 30.6525 208.819 30.4893 208.39 30.4893C207.973 30.4893 207.638 30.6542 207.383 30.9839C207.128 31.3136 207 31.7499 207 32.2928C207 32.839 207.126 33.2769 207.378 33.6067C207.633 33.9331 207.97 34.0963 208.39 34.0963Z" fill="#1A1A1A"/>
<path d="M202.456 35.0204C201.624 35.0204 200.99 34.754 200.554 34.2211C200.121 33.6882 199.904 32.9039 199.904 31.8681C199.904 30.8923 200.003 30.1046 200.201 29.5051C200.403 28.9023 200.711 28.456 201.127 28.1662C201.547 27.8765 202.096 27.72 202.774 27.6966L203.247 27.6817C203.901 27.6517 204.363 27.5651 204.631 27.4219V28.3161C204.561 28.3827 204.401 28.4427 204.153 28.496C203.904 28.5493 203.623 28.5826 203.307 28.5959L202.844 28.6109C202.492 28.6242 202.195 28.6741 201.953 28.7607C201.715 28.844 201.517 28.9772 201.359 29.1604C201.201 29.3403 201.079 29.5584 200.992 29.8148C200.904 30.068 200.836 30.3877 200.785 30.774H200.825C200.993 30.4643 201.232 30.2278 201.54 30.0646C201.852 29.8981 202.216 29.8148 202.633 29.8148C203.347 29.8148 203.916 30.0447 204.339 30.5043C204.765 30.9639 204.978 31.58 204.978 32.3527C204.978 33.1787 204.753 33.8298 204.304 34.306C203.854 34.7823 203.238 35.0204 202.456 35.0204ZM202.446 34.1162C202.896 34.1162 203.245 33.9647 203.493 33.6616C203.742 33.3552 203.866 32.9239 203.866 32.3677C203.866 31.8381 203.742 31.4268 203.493 31.1337C203.245 30.8406 202.896 30.6941 202.446 30.6941C201.993 30.6941 201.641 30.8406 201.389 31.1337C201.141 31.4268 201.017 31.8381 201.017 32.3677C201.017 32.9272 201.141 33.3585 201.389 33.6616C201.641 33.9647 201.993 34.1162 202.446 34.1162Z" fill="#1A1A1A"/>
<path d="M198.474 34.2894C198.017 34.7756 197.408 35.0187 196.647 35.0187C195.885 35.0187 195.276 34.7756 194.819 34.2894C194.363 33.7998 194.135 33.1337 194.135 32.2911C194.135 31.4518 194.363 30.789 194.819 30.3027C195.276 29.8132 195.885 29.5684 196.647 29.5684C197.408 29.5684 198.017 29.8132 198.474 30.3027C198.93 30.789 199.158 31.4518 199.158 32.2911C199.158 33.1337 198.93 33.7998 198.474 34.2894ZM196.647 34.1295C197.08 34.1295 197.422 33.968 197.673 33.6449C197.925 33.3218 198.051 32.8706 198.051 32.2911C198.051 31.7149 197.923 31.2653 197.668 30.9422C197.417 30.6191 197.076 30.4576 196.647 30.4576C196.217 30.4576 195.875 30.6191 195.62 30.9422C195.368 31.2653 195.242 31.7149 195.242 32.2911C195.242 32.8706 195.368 33.3218 195.62 33.6449C195.875 33.968 196.217 34.1295 196.647 34.1295Z" fill="#1A1A1A"/>
<path d="M288.558 21.8655C288.101 22.3518 287.492 22.5949 286.731 22.5949C285.969 22.5949 285.36 22.3518 284.903 21.8655C284.447 21.3759 284.219 20.7098 284.219 19.8672C284.219 19.0279 284.447 18.3652 284.903 17.8789C285.36 17.3893 285.969 17.1445 286.731 17.1445C287.492 17.1445 288.101 17.3893 288.558 17.8789C289.014 18.3652 289.242 19.0279 289.242 19.8672C289.242 20.7098 289.014 21.3759 288.558 21.8655ZM286.731 21.7057C287.163 21.7057 287.506 21.5441 287.757 21.2211C288.009 20.898 288.135 20.4467 288.135 19.8672C288.135 19.291 288.007 18.8414 287.752 18.5184C287.501 18.1953 287.16 18.0338 286.731 18.0338C286.301 18.0338 285.959 18.1953 285.704 18.5184C285.452 18.8414 285.326 19.291 285.326 19.8672C285.326 20.4467 285.452 20.898 285.704 21.2211C285.959 21.5441 286.301 21.7057 286.731 21.7057Z" fill="#1A1A1A"/>
<path d="M283.71 18.0926H281.283V22.4938H280.201V17.2383H283.71V18.0926Z" fill="#1A1A1A"/>
<path d="M278.581 21.8655C278.125 22.3518 277.516 22.5949 276.754 22.5949C275.992 22.5949 275.383 22.3518 274.927 21.8655C274.47 21.3759 274.242 20.7098 274.242 19.8672C274.242 19.0279 274.47 18.3652 274.927 17.8789C275.383 17.3893 275.992 17.1445 276.754 17.1445C277.516 17.1445 278.125 17.3893 278.581 17.8789C279.038 18.3652 279.266 19.0279 279.266 19.8672C279.266 20.7098 279.038 21.3759 278.581 21.8655ZM276.754 21.7057C277.187 21.7057 277.529 21.5441 277.781 21.2211C278.033 20.898 278.158 20.4467 278.158 19.8672C278.158 19.291 278.031 18.8414 277.776 18.5184C277.524 18.1953 277.184 18.0338 276.754 18.0338C276.324 18.0338 275.982 18.1953 275.727 18.5184C275.475 18.8414 275.35 19.291 275.35 19.8672C275.35 20.4467 275.475 20.898 275.727 21.2211C275.982 21.5441 276.324 21.7057 276.754 21.7057Z" fill="#1A1A1A"/>
<path d="M272.213 22.4938V20.2058H269.817V22.4938H268.734V17.2383H269.817V19.3565H272.213V17.2383H273.295V22.4938H272.213Z" fill="#1A1A1A"/>
<path d="M265.719 19.7062H264.803V21.6446H265.719C266.031 21.6446 266.28 21.5563 266.464 21.3798C266.652 21.1999 266.746 20.9651 266.746 20.6754C266.746 20.3823 266.652 20.1475 266.464 19.971C266.276 19.7945 266.028 19.7062 265.719 19.7062ZM263.721 22.4938V17.2383H264.803V18.8619H265.815C266.429 18.8619 266.917 19.0268 267.28 19.3565C267.645 19.6829 267.828 20.1225 267.828 20.6754C267.828 21.2316 267.645 21.6745 267.28 22.0042C266.917 22.3306 266.429 22.4938 265.815 22.4938H263.721Z" fill="#1A1A1A"/>
<path d="M259.694 20.1009C259.674 20.4139 259.642 20.6904 259.598 20.9302C259.555 21.17 259.491 21.3948 259.407 21.6046C259.323 21.8111 259.221 21.9826 259.1 22.1192C258.979 22.2524 258.828 22.3573 258.647 22.4339C258.469 22.5072 258.263 22.5438 258.028 22.5438C257.88 22.5438 257.757 22.5255 257.66 22.4888V21.5396C257.751 21.5663 257.846 21.5796 257.947 21.5796C258.189 21.5796 258.367 21.4497 258.481 21.1899C258.595 20.9302 258.669 20.5521 258.702 20.0559L258.883 17.2383H262.553V22.4938H261.471V18.0926H259.84L259.694 20.1009Z" fill="#1A1A1A"/>
<path d="M254.515 21.7306C254.898 21.7306 255.218 21.6157 255.476 21.3859C255.738 21.1528 255.869 20.8664 255.869 20.5267V20.112L254.565 20.192C254.24 20.2153 253.988 20.2952 253.81 20.4317C253.636 20.565 253.549 20.7448 253.549 20.9713C253.549 21.2011 253.636 21.3859 253.81 21.5258C253.988 21.6624 254.223 21.7306 254.515 21.7306ZM254.213 22.5849C253.693 22.5849 253.268 22.4384 252.939 22.1453C252.614 21.8522 252.451 21.4709 252.451 21.0013C252.451 20.5417 252.622 20.177 252.965 19.9072C253.307 19.6341 253.792 19.4809 254.419 19.4476L255.869 19.3627V18.958C255.869 18.6649 255.775 18.4368 255.587 18.2736C255.399 18.107 255.139 18.0238 254.807 18.0238C254.498 18.0238 254.247 18.0921 254.052 18.2286C253.861 18.3652 253.74 18.5533 253.689 18.7931H252.663C252.693 18.3069 252.904 17.9105 253.297 17.6041C253.689 17.2977 254.206 17.1445 254.847 17.1445C255.488 17.1445 255.998 17.3011 256.377 17.6141C256.76 17.9272 256.951 18.3468 256.951 18.8731V22.495H255.909V21.6307H255.884C255.733 21.9205 255.503 22.152 255.195 22.3251C254.889 22.4983 254.562 22.5849 254.213 22.5849Z" fill="#1A1A1A"/>
<path d="M250.396 22.4938V20.2058H248V22.4938H246.918V17.2383H248V19.3565H250.396V17.2383H251.479V22.4938H250.396Z" fill="#1A1A1A"/>
<path d="M245.298 21.8655C244.842 22.3518 244.233 22.5949 243.471 22.5949C242.709 22.5949 242.1 22.3518 241.644 21.8655C241.187 21.3759 240.959 20.7098 240.959 19.8672C240.959 19.0279 241.187 18.3652 241.644 17.8789C242.1 17.3893 242.709 17.1445 243.471 17.1445C244.233 17.1445 244.842 17.3893 245.298 17.8789C245.754 18.3652 245.983 19.0279 245.983 19.8672C245.983 20.7098 245.754 21.3759 245.298 21.8655ZM243.471 21.7057C243.904 21.7057 244.246 21.5441 244.498 21.2211C244.749 20.898 244.875 20.4467 244.875 19.8672C244.875 19.291 244.748 18.8414 244.493 18.5184C244.241 18.1953 243.9 18.0338 243.471 18.0338C243.041 18.0338 242.699 18.1953 242.444 18.5184C242.192 18.8414 242.066 19.291 242.066 19.8672C242.066 20.4467 242.192 20.898 242.444 21.2211C242.699 21.5441 243.041 21.7057 243.471 21.7057Z" fill="#1A1A1A"/>
<path d="M236.463 22.4938H235.391V17.2383H236.463V20.9202H236.503L238.949 17.2383H240.022V22.4938H238.949V18.802H238.909L236.463 22.4938Z" fill="#1A1A1A"/>
<path d="M234.505 18.923H233.458C233.384 18.6632 233.243 18.4518 233.035 18.2886C232.827 18.1254 232.562 18.0438 232.24 18.0438C231.82 18.0438 231.483 18.2103 231.228 18.5433C230.976 18.8731 230.85 19.3144 230.85 19.8672C230.85 20.4334 230.976 20.8797 231.228 21.2061C231.483 21.5292 231.824 21.6907 232.25 21.6907C232.569 21.6907 232.832 21.6157 233.04 21.4659C233.248 21.3127 233.391 21.0979 233.468 20.8214H234.515C234.438 21.3543 234.193 21.7839 233.78 22.1103C233.371 22.4334 232.857 22.5949 232.24 22.5949C231.478 22.5949 230.872 22.3501 230.423 21.8605C229.973 21.371 229.748 20.7065 229.748 19.8672C229.748 19.0413 229.973 18.3818 230.423 17.8889C230.876 17.3927 231.478 17.1445 232.23 17.1445C232.857 17.1445 233.372 17.3144 233.775 17.6541C234.181 17.9905 234.424 18.4135 234.505 18.923Z" fill="#1A1A1A"/>
<path d="M229.099 18.923H228.052C227.978 18.6632 227.837 18.4518 227.629 18.2886C227.421 18.1254 227.156 18.0438 226.834 18.0438C226.414 18.0438 226.077 18.2103 225.822 18.5433C225.57 18.8731 225.444 19.3144 225.444 19.8672C225.444 20.4334 225.57 20.8797 225.822 21.2061C226.077 21.5292 226.417 21.6907 226.844 21.6907C227.162 21.6907 227.426 21.6157 227.634 21.4659C227.842 21.3127 227.985 21.0979 228.062 20.8214H229.109C229.032 21.3543 228.787 21.7839 228.374 22.1103C227.964 22.4334 227.451 22.5949 226.834 22.5949C226.072 22.5949 225.466 22.3501 225.016 21.8605C224.567 21.371 224.342 20.7065 224.342 19.8672C224.342 19.0413 224.567 18.3818 225.016 17.8889C225.469 17.3927 226.072 17.1445 226.823 17.1445C227.451 17.1445 227.966 17.3144 228.369 17.6541C228.775 17.9905 229.018 18.4135 229.099 18.923Z" fill="#1A1A1A"/>
<path d="M222.183 18.3935C221.945 18.1404 221.638 18.0138 221.262 18.0138C220.886 18.0138 220.574 18.142 220.326 18.3985C220.077 18.6516 219.94 18.9796 219.913 19.3826H222.561C222.547 18.9763 222.421 18.6466 222.183 18.3935ZM222.556 20.9513H223.588C223.51 21.4342 223.262 21.8289 222.843 22.1353C222.423 22.4417 221.911 22.5949 221.307 22.5949C220.532 22.5949 219.921 22.3535 219.475 21.8705C219.032 21.3843 218.811 20.7248 218.811 19.8922C218.811 19.0662 219.032 18.4018 219.475 17.8989C219.921 17.396 220.517 17.1445 221.262 17.1445C221.994 17.1445 222.574 17.3827 223.004 17.8589C223.433 18.3319 223.648 18.968 223.648 19.7673V20.137H219.908V20.2019C219.908 20.6616 220.037 21.0296 220.296 21.306C220.554 21.5824 220.9 21.7207 221.332 21.7207C221.638 21.7207 221.9 21.6507 222.118 21.5108C222.336 21.371 222.482 21.1844 222.556 20.9513Z" fill="#1A1A1A"/>
<path d="M214.27 21.6969V18.04C213.75 18.0533 213.337 18.2232 213.032 18.5496C212.73 18.876 212.579 19.3156 212.579 19.8684C212.579 20.4246 212.73 20.8643 213.032 21.1873C213.337 21.5104 213.75 21.6802 214.27 21.6969ZM216.551 21.1923C216.856 20.8659 217.009 20.4246 217.009 19.8684C217.009 19.3122 216.856 18.8726 216.551 18.5496C216.249 18.2265 215.837 18.0566 215.317 18.04V21.6969C215.834 21.6836 216.245 21.5154 216.551 21.1923ZM214.265 22.5662C213.416 22.5495 212.738 22.2997 212.232 21.8168C211.728 21.3305 211.477 20.6811 211.477 19.8684C211.477 19.0591 211.73 18.4113 212.237 17.9251C212.743 17.4388 213.42 17.189 214.265 17.1757V15.5371H215.322V17.1757C216.165 17.1924 216.839 17.4422 217.346 17.9251C217.853 18.408 218.106 19.0558 218.106 19.8684C218.106 20.6778 217.851 21.3255 217.341 21.8118C216.834 22.2981 216.161 22.5495 215.322 22.5662V24.2347H214.265V22.5662Z" fill="#1A1A1A"/>
<path d="M210.091 21.8655C209.635 22.3518 209.026 22.5949 208.264 22.5949C207.502 22.5949 206.893 22.3518 206.437 21.8655C205.98 21.3759 205.752 20.7098 205.752 19.8672C205.752 19.0279 205.98 18.3652 206.437 17.8789C206.893 17.3893 207.502 17.1445 208.264 17.1445C209.026 17.1445 209.635 17.3893 210.091 17.8789C210.547 18.3652 210.776 19.0279 210.776 19.8672C210.776 20.7098 210.547 21.3759 210.091 21.8655ZM208.264 21.7057C208.697 21.7057 209.039 21.5441 209.291 21.2211C209.542 20.898 209.668 20.4467 209.668 19.8672C209.668 19.291 209.541 18.8414 209.286 18.5184C209.034 18.1953 208.693 18.0338 208.264 18.0338C207.834 18.0338 207.492 18.1953 207.237 18.5184C206.985 18.8414 206.859 19.291 206.859 19.8672C206.859 20.4467 206.985 20.898 207.237 21.2211C207.492 21.5441 207.834 21.7057 208.264 21.7057Z" fill="#1A1A1A"/>
<path d="M202.817 17.1543C203.492 17.1543 204.032 17.3991 204.438 17.8887C204.844 18.3783 205.047 19.0377 205.047 19.867C205.047 20.6963 204.846 21.3574 204.443 21.8503C204.04 22.3399 203.505 22.5847 202.837 22.5847C202.461 22.5847 202.127 22.4998 201.836 22.3299C201.547 22.1601 201.325 21.9269 201.171 21.6305H201.146V24.2333H200.059V17.2392H201.111V18.1435H201.131C201.289 17.8371 201.515 17.5956 201.81 17.4191C202.106 17.2426 202.441 17.1543 202.817 17.1543ZM202.53 21.6705C202.96 21.6705 203.3 21.5089 203.552 21.1859C203.804 20.8595 203.93 20.4199 203.93 19.867C203.93 19.3175 203.804 18.8795 203.552 18.5531C203.3 18.2267 202.96 18.0635 202.53 18.0635C202.114 18.0635 201.778 18.2284 201.523 18.5581C201.268 18.8878 201.141 19.3241 201.141 19.867C201.141 20.4132 201.267 20.8512 201.518 21.1809C201.773 21.5073 202.111 21.6705 202.53 21.6705Z" fill="#1A1A1A"/>
<path d="M197.795 22.4938V18.0926H195.449V22.4938H194.367V17.2383H198.882V22.4938H197.795Z" fill="#1A1A1A"/>
<path d="M296.401 4.81641V5.67068H294.739V10.072H293.657V5.67068H291.996V4.81641H296.401Z" fill="#1A1A1A"/>
<path d="M287.586 12.0303C287.381 12.0303 287.233 12.022 287.143 12.0053V11.1311C287.196 11.1444 287.314 11.151 287.495 11.151C287.75 11.151 287.95 11.0928 288.094 10.9762C288.238 10.863 288.352 10.6715 288.436 10.4017C288.436 10.3983 288.453 10.3434 288.487 10.2368L288.532 10.077L286.619 4.81641H287.797L289.141 9.09279H289.156L290.5 4.81641H291.648L289.66 10.3467C289.435 10.9829 289.171 11.4225 288.869 11.6656C288.567 11.9087 288.139 12.0303 287.586 12.0303Z" fill="#1A1A1A"/>
<path d="M286.262 4.81641V5.67068H284.601V10.072H283.519V5.67068H281.857V4.81641H286.262Z" fill="#1A1A1A"/>
<path d="M277.508 10.072H276.436V4.81641H277.508V8.49829H277.548L279.994 4.81641H281.067V10.072H279.994V6.38008H279.954L277.508 10.072Z" fill="#1A1A1A"/>
<path d="M275.641 4.81641V5.67068H273.98V10.072H272.897V5.67068H271.236V4.81641H275.641Z" fill="#1A1A1A"/>
<path d="M270.839 6.4992H269.792C269.718 6.23942 269.577 6.02793 269.369 5.86473C269.161 5.70154 268.896 5.61994 268.574 5.61994C268.154 5.61994 267.817 5.78647 267.562 6.11952C267.31 6.44924 267.184 6.89053 267.184 7.4434C267.184 8.00959 267.31 8.45588 267.562 8.78227C267.817 9.10533 268.158 9.26686 268.584 9.26686C268.903 9.26686 269.166 9.19192 269.374 9.04205C269.582 8.88884 269.725 8.67402 269.802 8.39759H270.849C270.772 8.93047 270.527 9.36011 270.114 9.6865C269.705 10.0096 269.191 10.1711 268.574 10.1711C267.812 10.1711 267.206 9.9263 266.757 9.43671C266.307 8.94713 266.082 8.28269 266.082 7.4434C266.082 6.61743 266.307 5.95799 266.757 5.46507C267.21 4.96883 267.812 4.7207 268.564 4.7207C269.191 4.7207 269.706 4.89056 270.109 5.23027C270.515 5.56665 270.758 5.98963 270.839 6.4992Z" fill="#1A1A1A"/>
<path d="M264.058 10.072V7.78389H261.662V10.072H260.58V4.81641H261.662V6.93461H264.058V4.81641H265.141V10.072H264.058Z" fill="#1A1A1A"/>
<path d="M255.853 10.072H254.781V4.81641H255.853V8.49829H255.894L258.34 4.81641H259.412V10.072H258.34V6.38008H258.3L255.853 10.072Z" fill="#1A1A1A"/>
<path d="M247.961 10.0714H246.889V4.81586H247.961V8.49774H248.001L250.448 4.81586H251.52V10.0714H250.448V6.37954H250.407L247.961 10.0714ZM247.608 2.50781H248.343C248.347 2.79424 248.434 3.03237 248.605 3.22221C248.776 3.40872 249.001 3.50197 249.28 3.50197C249.562 3.50197 249.788 3.40872 249.959 3.22221C250.13 3.03237 250.218 2.79424 250.221 2.50781H250.956C250.956 2.98075 250.802 3.36375 250.493 3.65684C250.184 3.94659 249.78 4.09147 249.28 4.09147C248.783 4.09147 248.38 3.94659 248.072 3.65684C247.763 3.36375 247.608 2.98075 247.608 2.50781Z" fill="#1A1A1A"/>
<path d="M242.162 10.072H241.09V4.81641H242.162V8.49829H242.202L244.649 4.81641H245.721V10.072H244.649V6.38008H244.608L242.162 10.072Z" fill="#1A1A1A"/>
<path d="M237.974 7.28432L240.41 10.072H239.046L236.947 7.64901H236.906V10.072H235.824V4.81641H236.906V7.0645H236.947L239.021 4.81641H240.319L237.974 7.28432Z" fill="#1A1A1A"/>
<path d="M234.939 6.4992H233.892C233.818 6.23942 233.677 6.02793 233.469 5.86473C233.261 5.70154 232.996 5.61994 232.673 5.61994C232.254 5.61994 231.917 5.78647 231.662 6.11952C231.41 6.44924 231.284 6.89053 231.284 7.4434C231.284 8.00959 231.41 8.45588 231.662 8.78227C231.917 9.10533 232.257 9.26686 232.683 9.26686C233.002 9.26686 233.266 9.19192 233.474 9.04205C233.682 8.88884 233.824 8.67402 233.902 8.39759H234.949C234.871 8.93047 234.626 9.36011 234.214 9.6865C233.804 10.0096 233.291 10.1711 232.673 10.1711C231.912 10.1711 231.306 9.9263 230.856 9.43671C230.406 8.94713 230.182 8.28269 230.182 7.4434C230.182 6.61743 230.406 5.95799 230.856 5.46507C231.309 4.96883 231.912 4.7207 232.663 4.7207C233.291 4.7207 233.806 4.89056 234.209 5.23027C234.615 5.56665 234.858 5.98963 234.939 6.4992Z" fill="#1A1A1A"/>
<path d="M227.337 5.60074H226.225V6.97958H227.231C227.845 6.97958 228.152 6.74644 228.152 6.28017C228.152 6.06368 228.082 5.89716 227.941 5.78059C227.8 5.66069 227.599 5.60074 227.337 5.60074ZM227.302 7.73394H226.225V9.28762H227.423C227.731 9.28762 227.966 9.22268 228.127 9.09279C228.288 8.95957 228.369 8.7664 228.369 8.51328C228.369 7.99372 228.013 7.73394 227.302 7.73394ZM225.152 10.072V4.81641H227.558C228.075 4.81641 228.48 4.9363 228.772 5.1761C229.067 5.41257 229.215 5.73896 229.215 6.15527C229.215 6.42838 229.127 6.67483 228.953 6.89465C228.782 7.11113 228.569 7.24269 228.314 7.28931V7.32928C228.656 7.37591 228.931 7.51079 229.139 7.73394C229.347 7.95375 229.451 8.22852 229.451 8.55824C229.451 9.02118 229.283 9.3892 228.948 9.6623C228.616 9.93541 228.163 10.072 227.589 10.072H225.152Z" fill="#1A1A1A"/>
<path d="M223.532 9.44171C223.076 9.92796 222.467 10.1711 221.705 10.1711C220.943 10.1711 220.334 9.92796 219.878 9.44171C219.422 8.95212 219.193 8.28602 219.193 7.4434C219.193 6.60411 219.422 5.94134 219.878 5.45508C220.334 4.9655 220.943 4.7207 221.705 4.7207C222.467 4.7207 223.076 4.9655 223.532 5.45508C223.989 5.94134 224.217 6.60411 224.217 7.4434C224.217 8.28602 223.989 8.95212 223.532 9.44171ZM221.705 9.28184C222.138 9.28184 222.48 9.12031 222.732 8.79725C222.984 8.47419 223.11 8.02291 223.11 7.4434C223.11 6.86722 222.982 6.4176 222.727 6.09454C222.475 5.77148 222.135 5.60995 221.705 5.60995C221.276 5.60995 220.933 5.77148 220.678 6.09454C220.427 6.4176 220.301 6.86722 220.301 7.4434C220.301 8.02291 220.427 8.47419 220.678 8.79725C220.933 9.12031 221.276 9.28184 221.705 9.28184Z" fill="#1A1A1A"/>
<path d="M216.438 7.28432L218.875 10.072H217.511L215.412 7.64901H215.371V10.072H214.289V4.81641H215.371V7.0645H215.412L217.485 4.81641H218.784L216.438 7.28432Z" fill="#1A1A1A"/>
<path d="M213.403 6.4992H212.356C212.283 6.23942 212.142 6.02793 211.934 5.86473C211.725 5.70154 211.46 5.61994 211.138 5.61994C210.719 5.61994 210.381 5.78647 210.126 6.11952C209.875 6.44924 209.749 6.89053 209.749 7.4434C209.749 8.00959 209.875 8.45588 210.126 8.78227C210.381 9.10533 210.722 9.26686 211.148 9.26686C211.467 9.26686 211.73 9.19192 211.939 9.04205C212.147 8.88884 212.289 8.67402 212.366 8.39759H213.413C213.336 8.93047 213.091 9.36011 212.679 9.6865C212.269 10.0096 211.756 10.1711 211.138 10.1711C210.376 10.1711 209.771 9.9263 209.321 9.43671C208.871 8.94713 208.646 8.28269 208.646 7.4434C208.646 6.61743 208.871 5.95799 209.321 5.46507C209.774 4.96883 210.376 4.7207 211.128 4.7207C211.756 4.7207 212.271 4.89056 212.673 5.23027C213.08 5.56665 213.323 5.98963 213.403 6.4992Z" fill="#1A1A1A"/>
<path d="M207.263 9.44171C206.807 9.92796 206.197 10.1711 205.436 10.1711C204.674 10.1711 204.065 9.92796 203.608 9.44171C203.152 8.95212 202.924 8.28602 202.924 7.4434C202.924 6.60411 203.152 5.94134 203.608 5.45508C204.065 4.9655 204.674 4.7207 205.436 4.7207C206.197 4.7207 206.807 4.9655 207.263 5.45508C207.719 5.94134 207.948 6.60411 207.948 7.4434C207.948 8.28602 207.719 8.95212 207.263 9.44171ZM205.436 9.28184C205.869 9.28184 206.211 9.12031 206.463 8.79725C206.714 8.47419 206.84 8.02291 206.84 7.4434C206.84 6.86722 206.713 6.4176 206.458 6.09454C206.206 5.77148 205.865 5.60995 205.436 5.60995C205.006 5.60995 204.664 5.77148 204.409 6.09454C204.157 6.4176 204.031 6.86722 204.031 7.4434C204.031 8.02291 204.157 8.47419 204.409 8.79725C204.664 9.12031 205.006 9.28184 205.436 9.28184Z" fill="#1A1A1A"/>
<path d="M201.851 10.0722H200.819V4.76667H200.784L198.594 10.0172H197.759L195.564 4.76667H195.529V10.0722H194.502V2.86328H195.806L198.156 8.55347H198.197L200.542 2.86328H201.851V10.0722Z" fill="#1A1A1A"/>
<line x1="183.488" y1="0.572266" x2="183.488" y2="37.8436" stroke="#1A1A1A" stroke-width="1.5"/>
</svg>
