<svg viewBox="0 0 512 512" xmlns="http://www.w3.org/2000/svg"><path d="m452 0c-41.355469 0-75 33.644531-75 75v75c0 45.070312-32.933594 82.589844-76 89.765625v-164.765625c0-24.8125 20.1875-45 45-45v-30h-90l-30 256 30 256h90v-30c-24.8125 0-45-20.1875-45-45v-106.613281c92.8125-7.652344 166-85.632813 166-180.386719v-75c0-24.8125 20.1875-45 45-45v-30zm0 0" fill="#0b3b5a"></path><path d="m166 0v30c24.8125 0 45 20.1875 45 45v164.765625c-43.066406-7.175781-76-44.695313-76-89.765625v-75c0-41.355469-33.644531-75-75-75h-60v30c24.8125 0 45 20.1875 45 45v75c0 94.753906 73.1875 172.734375 166 180.386719v106.613281c0 24.8125-20.1875 45-45 45v30h90v-512zm0 0" fill="#124d73"></path></svg>